<?xml version="1.0" encoding="UTF-8" standalone="no"?>
<!-- Created with Inkscape (http://www.inkscape.org/) -->

<svg
   xmlns:dc="http://purl.org/dc/elements/1.1/"
   xmlns:cc="http://creativecommons.org/ns#"
   xmlns:rdf="http://www.w3.org/1999/02/22-rdf-syntax-ns#"
   xmlns:svg="http://www.w3.org/2000/svg"
   xmlns="http://www.w3.org/2000/svg"
   xmlns:sodipodi="http://sodipodi.sourceforge.net/DTD/sodipodi-0.dtd"
   xmlns:inkscape="http://www.inkscape.org/namespaces/inkscape"
   id="svg2"
   version="1.1"
   inkscape:version="0.48.1 r9760"
   width="48"
   height="32"
   sodipodi:docname="CCS.png">
  <metadata
     id="metadata8">
    <rdf:RDF>
      <cc:Work
         rdf:about="">
        <dc:format>image/svg+xml</dc:format>
        <dc:type
           rdf:resource="http://purl.org/dc/dcmitype/StillImage" />
        <dc:title></dc:title>
      </cc:Work>
    </rdf:RDF>
  </metadata>
  <defs
     id="defs6" />
  <sodipodi:namedview
     pagecolor="#ffffff"
     bordercolor="#666666"
     borderopacity="1"
     objecttolerance="10"
     gridtolerance="10"
     guidetolerance="10"
     inkscape:pageopacity="0"
     inkscape:pageshadow="2"
     inkscape:window-width="1280"
     inkscape:window-height="754"
     id="namedview4"
     showgrid="false"
     inkscape:zoom="1.1152263"
     inkscape:cx="-2.8450185"
     inkscape:cy="121.5"
     inkscape:window-x="-4"
     inkscape:window-y="-1"
     inkscape:window-maximized="1"
     inkscape:current-layer="svg2" />
  <path
     style="fill:#000000"
     d="m 0.12058828,15.73801 c 0.07548,-0.0755 2.75031302,-0.13724 5.94407302,-0.13724 l 5.8068197,0 5.98607,-5.98856 c 3.29234,-3.29371 6.07702,-5.98857 6.18819,-5.98857 0.11116,0 2.89584,2.69486 6.18818,5.98857 l 5.98607,5.98856 1.53944,0 1.53944,0 -0.29057,-0.82357 c -0.15982,-0.45296 -0.29058,-1.04374 -0.29058,-1.31284 0,-0.4888 4e-4,-0.48869 0.50993,0.11676 0.28047,0.33331 0.88278,0.90163 1.33848,1.26293 l 0.82854,0.65691 3.30266,0.0998 c 2.75827,0.0834 3.30267,0.14917 3.30267,0.39924 0,0.25007 -0.5444,0.31588 -3.30267,0.39924 l -3.30266,0.0998 -0.82854,0.65691 c -0.4557,0.36131 -1.05801,0.92963 -1.33848,1.26294 -0.50945,0.60545 -0.50993,0.60556 -0.50993,0.11675 0,-0.2691 0.13076,-0.85987 0.29058,-1.31284 l 0.29057,-0.82357 -1.53944,0 -1.53944,0 -5.98607,5.98856 c -3.29234,3.29372 -6.07702,5.98857 -6.18818,5.98857 -0.11117,0 -2.89454,-2.69355 -6.18529,-5.98566 l -5.98317,-5.98567 -5.8763397,-0.0528 C 0.41410428,16.30203 -0.36233772,16.22092 0.12058828,15.73799 z m 18.13620272,5.85133 5.48952,5.48679 0,-11.07612 0,-11.07612 -5.48952,5.4868 c -3.01923,3.01773 -5.48952,5.53293 -5.48952,5.58932 0,0.0564 2.47029,2.57159 5.48952,5.58933 z m 11.62735,-0.0504 5.53897,-5.53898 -5.53897,-5.53897 -5.53897,-5.53897 0,11.07794 0,11.07795 5.53897,-5.53897 z"
     id="path2987"
     inkscape:connector-curvature="0" />
</svg>
