<?xml version="1.0" encoding="UTF-8" standalone="no"?>
<!-- Created with Inkscape (http://www.inkscape.org/) -->

<svg
   xmlns:dc="http://purl.org/dc/elements/1.1/"
   xmlns:cc="http://creativecommons.org/ns#"
   xmlns:rdf="http://www.w3.org/1999/02/22-rdf-syntax-ns#"
   xmlns:svg="http://www.w3.org/2000/svg"
   xmlns="http://www.w3.org/2000/svg"
   xmlns:sodipodi="http://sodipodi.sourceforge.net/DTD/sodipodi-0.dtd"
   xmlns:inkscape="http://www.inkscape.org/namespaces/inkscape"
   id="svg2"
   version="1.1"
   inkscape:version="0.48.1 r9760"
   width="48"
   height="32"
   sodipodi:docname="CVS.png">
  <metadata
     id="metadata8">
    <rdf:RDF>
      <cc:Work
         rdf:about="">
        <dc:format>image/svg+xml</dc:format>
        <dc:type
           rdf:resource="http://purl.org/dc/dcmitype/StillImage" />
        <dc:title></dc:title>
      </cc:Work>
    </rdf:RDF>
  </metadata>
  <defs
     id="defs6" />
  <sodipodi:namedview
     pagecolor="#ffffff"
     bordercolor="#666666"
     borderopacity="1"
     objecttolerance="10"
     gridtolerance="10"
     guidetolerance="10"
     inkscape:pageopacity="0"
     inkscape:pageshadow="2"
     inkscape:window-width="1280"
     inkscape:window-height="754"
     id="namedview4"
     showgrid="false"
     inkscape:zoom="16.604167"
     inkscape:cx="24"
     inkscape:cy="16"
     inkscape:window-x="-4"
     inkscape:window-y="-1"
     inkscape:window-maximized="1"
     inkscape:current-layer="svg2" />
  <path
     style="fill:#000000"
     d="m 0.12059265,18.532675 c 0.0755,-0.0755 2.75030995,-0.13724 5.94405995,-0.13724 l 5.8068304,0 5.98607,-5.98856 c 3.29234,-3.29371 6.07702,-5.98857 6.18819,-5.98857 0.11116,0 2.89454,2.69355 6.18528,5.98567 l 5.983172,5.98566 5.892902,0.0528 c 5.081588,0.0455 5.892902,0.094 5.892902,0.35224 0,0.2582 -0.811314,0.3067 -5.892902,0.35223 l -5.892902,0.0528 -5.983172,5.98566 c -3.29074,3.29212 -6.07412,5.98566 -6.18528,5.98566 -0.11117,0 -2.89455,-2.69354 -6.18529,-5.98566 l -5.98317,-5.98566 -5.8763404,-0.0528 c -5.58683995,-0.0502 -6.36327995,-0.13131 -5.88034995,-0.61423 z m 23.97369035,-0.13724 10.92777,0 -5.48681,-5.48953 -5.48681,-5.48953 -5.44096,5.43827 c -2.99253,2.99104 -5.44096,5.46133 -5.44096,5.48952 0,0.0282 4.9175,0.0513 10.92777,0.0513 z m -5.48681,6.33927 5.44096,5.43826 5.48681,-5.48953 5.48681,-5.48953 -10.92777,0 c -6.01027,0 -10.92777,0.0231 -10.92777,0.0513 0,0.0282 2.44843,2.49849 5.44096,5.48953 z m 12.72435,-21.31068 1.397336,0 0,-1.29752 c 0,-1.02028 0.06398,-1.29753 0.299428,-1.29753 0.235448,0 0.299428,0.27725 0.299428,1.29753 l 0,1.29752 1.397332,0 c 1.264252,0 1.397332,0.038 1.397332,0.39924 0,0.36121 -0.13308,0.39923 -1.397332,0.39923 l -1.397332,0 0,1.29753 c 0,1.02027 -0.06398,1.29752 -0.299428,1.29752 -0.235448,0 -0.299428,-0.27725 -0.299428,-1.29752 l 0,-1.29753 -1.397336,0 c -1.26425,0 -1.39733,-0.038 -1.39733,-0.39923 0,-0.36122 0.13308,-0.39924 1.39733,-0.39924 z"
     id="path2987"
     inkscape:connector-curvature="0" />
</svg>
