<?xml version="1.0" encoding="UTF-8" standalone="no"?>
<!-- Created with Inkscape (http://www.inkscape.org/) -->

<svg
   xmlns:dc="http://purl.org/dc/elements/1.1/"
   xmlns:cc="http://creativecommons.org/ns#"
   xmlns:rdf="http://www.w3.org/1999/02/22-rdf-syntax-ns#"
   xmlns:svg="http://www.w3.org/2000/svg"
   xmlns="http://www.w3.org/2000/svg"
   xmlns:sodipodi="http://sodipodi.sourceforge.net/DTD/sodipodi-0.dtd"
   xmlns:inkscape="http://www.inkscape.org/namespaces/inkscape"
   id="svg2"
   version="1.1"
   inkscape:version="0.48.1 r9760"
   width="48"
   height="32"
   sodipodi:docname="current.png">
  <metadata
     id="metadata8">
    <rdf:RDF>
      <cc:Work
         rdf:about="">
        <dc:format>image/svg+xml</dc:format>
        <dc:type
           rdf:resource="http://purl.org/dc/dcmitype/StillImage" />
        <dc:title></dc:title>
      </cc:Work>
    </rdf:RDF>
  </metadata>
  <defs
     id="defs6" />
  <sodipodi:namedview
     pagecolor="#ffffff"
     bordercolor="#666666"
     borderopacity="1"
     objecttolerance="10"
     gridtolerance="10"
     guidetolerance="10"
     inkscape:pageopacity="0"
     inkscape:pageshadow="2"
     inkscape:window-width="1280"
     inkscape:window-height="754"
     id="namedview4"
     showgrid="false"
     inkscape:zoom="1.1152263"
     inkscape:cx="120"
     inkscape:cy="121.5"
     inkscape:window-x="-4"
     inkscape:window-y="-1"
     inkscape:window-maximized="1"
     inkscape:current-layer="svg2" />
  <path
     style="fill:#000000"
     d="m 0.12071527,15.73801 c 0.07548,-0.0755 2.72728503,-0.13724 5.89289503,-0.13724 l 5.7556697,0 0,-0.65672 c 0,-1.05383 0.54854,-2.92032 1.3323,-4.53335 0.5353,-1.10168 1.1277,-1.89622 2.24271,-3.00796 2.65098,-2.64322 5.08142,-3.66763 8.70151,-3.66763 3.6201,0 6.05053,1.02441 8.70152,3.66763 1.115,1.11174 1.70741,1.90628 2.2427,3.00796 0.78377,1.61303 1.33231,3.47952 1.33231,4.53335 l 0,0.65672 1.48828,0 1.48828,0 -0.29057,-0.82357 c -0.15981,-0.45296 -0.29057,-1.04374 -0.29057,-1.31283 0,-0.48881 4e-4,-0.4887 0.50993,0.11675 0.28046,0.33331 0.88277,0.90163 1.33847,1.26293 l 0.82854,0.65691 3.30265,0.0998 C 47.4556,15.68416 48,15.74993 48,16 c 0,0.25007 -0.5444,0.31588 -3.30266,0.39924 l -3.30265,0.0998 -0.82854,0.65691 c -0.4557,0.3613 -1.05801,0.92962 -1.33847,1.26293 -0.50945,0.60544 -0.50993,0.60555 -0.50993,0.11675 0,-0.26909 0.13076,-0.85987 0.29057,-1.31283 l 0.29057,-0.82357 -1.48828,0 -1.48828,0 0,0.65672 c 0,1.05383 -0.54854,2.92031 -1.33231,4.53335 -0.53529,1.10168 -1.1277,1.89622 -2.2427,3.00796 -2.65099,2.64322 -5.08142,3.66763 -8.70152,3.66763 -3.62009,0 -6.05053,-1.02441 -8.70151,-3.66763 -1.11501,-1.11174 -1.70741,-1.90628 -2.24271,-3.00796 -0.78297,-1.6114 -1.3323,-3.47935 -1.3323,-4.53033 l 0,-0.65371 -5.8222797,-0.0529 C 0.41270227,16.30206 -0.36167473,16.2204 0.12071527,15.73801 z M 13.06232,19.53293 c 0.96367,3.03445 3.06941,5.44873 5.96405,6.83792 1.44151,0.6918 3.30149,1.20702 4.35743,1.20702 0.34619,0 0.36257,-0.52331 0.36257,-11.57786 0,-11.05455 -0.0164,-11.57786 -0.36257,-11.57786 -1.05594,0 -2.91592,0.51522 -4.35743,1.20702 -2.86488,1.37491 -4.8686,3.64085 -5.9051,6.6779 -0.75493,2.212 -0.77738,4.96363 -0.0589,7.22586 z m 11.64548,8.04494 c 1.05595,0 2.91592,-0.51522 4.35744,-1.20702 4.08449,-1.96022 6.45861,-5.77244 6.45861,-10.37084 0,-4.5984 -2.37412,-8.41062 -6.45861,-10.37084 -1.44152,-0.6918 -3.30149,-1.20702 -4.35744,-1.20702 -0.34618,0 -0.36257,0.52331 -0.36257,11.57786 0,11.05455 0.0164,11.57786 0.36257,11.57786 z"
     id="path2987"
     inkscape:connector-curvature="0" />
</svg>
