<?xml version="1.0" encoding="UTF-8" standalone="no"?>
<!-- Created with Inkscape (http://www.inkscape.org/) -->

<svg
   xmlns:dc="http://purl.org/dc/elements/1.1/"
   xmlns:cc="http://creativecommons.org/ns#"
   xmlns:rdf="http://www.w3.org/1999/02/22-rdf-syntax-ns#"
   xmlns:svg="http://www.w3.org/2000/svg"
   xmlns="http://www.w3.org/2000/svg"
   xmlns:sodipodi="http://sodipodi.sourceforge.net/DTD/sodipodi-0.dtd"
   xmlns:inkscape="http://www.inkscape.org/namespaces/inkscape"
   id="svg2"
   version="1.1"
   inkscape:version="0.48.1 r9760"
   width="48"
   height="32"
   sodipodi:docname="voltage.png">
  <metadata
     id="metadata8">
    <rdf:RDF>
      <cc:Work
         rdf:about="">
        <dc:format>image/svg+xml</dc:format>
        <dc:type
           rdf:resource="http://purl.org/dc/dcmitype/StillImage" />
        <dc:title></dc:title>
      </cc:Work>
    </rdf:RDF>
  </metadata>
  <defs
     id="defs6" />
  <sodipodi:namedview
     pagecolor="#ffffff"
     bordercolor="#666666"
     borderopacity="1"
     objecttolerance="10"
     gridtolerance="10"
     guidetolerance="10"
     inkscape:pageopacity="0"
     inkscape:pageshadow="2"
     inkscape:window-width="1280"
     inkscape:window-height="754"
     id="namedview4"
     showgrid="false"
     inkscape:zoom="16.604167"
     inkscape:cx="28.818068"
     inkscape:cy="16"
     inkscape:window-x="-4"
     inkscape:window-y="-1"
     inkscape:window-maximized="1"
     inkscape:current-layer="svg2" />
  <path
     style="fill:#000000"
     d="m 0.12071524,18.58839 c 0.07548,-0.0755 2.72728496,-0.13723 5.89289996,-0.13723 l 5.7556608,0 0,-0.65673 c 0,-1.05383 0.548541,-2.92031 1.332306,-4.53335 0.535297,-1.10167 1.1277,-1.89621 2.242706,-3.00795 2.650981,-2.64322 5.081422,-3.66764 8.701512,-3.66764 3.6201,0 6.05053,1.02442 8.70152,3.66764 1.115,1.11174 1.70741,1.90628 2.2427,3.00795 0.78297,1.6114 1.33231,3.47935 1.33231,4.53034 l 0,0.65371 5.83883,0.0529 C 47.19464,18.54363 48,18.59223 48,18.85037 c 0,0.25813 -0.80536,0.30673 -5.83884,0.35235 l -5.83883,0.0529 0,0.65371 c 0,1.05099 -0.54934,2.91894 -1.33231,4.53034 -0.53529,1.10167 -1.1277,1.89621 -2.2427,3.00795 -2.65099,2.64322 -5.08142,3.66763 -8.70152,3.66763 -3.62009,0 -6.050531,-1.02441 -8.701512,-3.66763 -1.115006,-1.11174 -1.707409,-1.90628 -2.242706,-3.00795 -0.782969,-1.6114 -1.332306,-3.47935 -1.332306,-4.53034 l 0,-0.65371 -5.8222768,-0.0529 C 0.41270324,19.15242 -0.36167476,19.07076 0.12071524,18.58837 z M 24.0458,18.45116 l 11.47805,0 0,-0.78817 c 0,-1.20289 -0.89528,-3.75981 -1.7984,-5.13621 -2.09064,-3.18626 -5.9004,-5.25425 -9.67965,-5.25425 -3.72447,0 -7.539404,2.04162 -9.615718,5.146 -0.906209,1.35491 -1.852118,3.99409 -1.858081,5.18425 l -0.0043,0.84838 11.478049,0 z m -10.983477,3.93215 c 0.963666,3.03446 3.069403,5.44873 5.964047,6.83792 3.37031,1.61747 6.66856,1.61747 10.03887,0 1.91332,-0.91823 3.52626,-2.31901 4.66021,-4.04722 0.90312,-1.3764 1.7984,-3.93332 1.7984,-5.13621 l 0,-0.78817 -11.47805,0 -11.478051,0 0,0.78817 c 0,0.43349 0.222559,1.48897 0.494574,2.34551 z M 31.33187,3.47978 l 1.39733,0 0,-1.29752 c 0,-1.02027 0.064,-1.29751 0.29943,-1.29751 0.23544,0 0.29942,0.27724 0.29942,1.29751 l 0,1.29752 1.39733,0 c 1.26425,0 1.39733,0.038 1.39733,0.39924 0,0.36121 -0.13308,0.39924 -1.39733,0.39924 l -1.39733,0 0,1.29752 c 0,1.02027 -0.064,1.29752 -0.29942,1.29752 -0.23545,0 -0.29943,-0.27725 -0.29943,-1.29752 l 0,-1.29752 -1.39733,0 c -1.26425,0 -1.39733,-0.038 -1.39733,-0.39924 0,-0.36121 0.13308,-0.39924 1.39733,-0.39924 z"
     id="path2987"
     inkscape:connector-curvature="0" />
</svg>
