/* XPM */
static char *qsapecng_16x16[] = {
/* columns rows colors chars-per-pixel */
"16 16 82 1 ",
"  c #6F6F6F",
". c #797979",
"X c gray48",
"o c #7B7B7B",
"O c #818181",
"+ c gray51",
"@ c #838383",
"# c #868686",
"$ c #888888",
"% c #898989",
"& c gray55",
"* c #909090",
"= c #959595",
"- c #979797",
"; c #9B9B9B",
": c gray61",
"> c gray62",
", c #9F9F9F",
"< c #A0A0A0",
"1 c gray63",
"2 c #A2A2A2",
"3 c gray64",
"4 c #A7A7A7",
"5 c gray66",
"6 c gray67",
"7 c #ACACAC",
"8 c #B4B4B4",
"9 c gray71",
"0 c #B6B6B6",
"q c #BCBCBC",
"w c gray74",
"e c gray75",
"r c #C1C1C1",
"t c gray76",
"y c #C3C3C3",
"u c gray77",
"i c #C5C5C5",
"p c #C8C8C8",
"a c gray79",
"s c #CACACA",
"d c #CBCBCB",
"f c gray80",
"g c #CDCDCD",
"h c gray81",
"j c #D0D0D0",
"k c gray82",
"l c #D2D2D2",
"z c LightGray",
"x c gray83",
"c c #D5D5D5",
"v c #D7D7D7",
"b c #D8D8D8",
"n c gray85",
"m c #DADADA",
"M c gray86",
"N c gainsboro",
"B c #DDDDDD",
"V c gray87",
"C c #DFDFDF",
"Z c #E1E1E1",
"A c #E2E2E2",
"S c gray89",
"D c #E4E4E4",
"F c gray90",
"G c #E6E6E6",
"H c #E9E9E9",
"J c gray92",
"K c #ECECEC",
"L c #EFEFEF",
"P c gray94",
"I c #F1F1F1",
"U c #F3F3F3",
"Y c #F4F4F4",
"T c gray96",
"R c #F8F8F8",
"E c #F9F9F9",
"W c gray98",
"Q c #FBFBFB",
"! c gray99",
"~ c #FEFEFE",
"^ c gray100",
"/ c None",
/* pixels */
"/^^^^^^^^^^^^^^/",
"^^^^^^^^^^WdW^^^",
"^^^^^^^^W89W;^^^",
"^^^^^^T&>q6+i^^^",
"^^^^JG=32^;k^^^^",
"^^C3L=W8q^^^^^^^",
"^^W2om*JW^^^^^^^",
"^vm2#tdkg3=G^^^^",
"^gTA^^^^^AJ^^UUL",
"io#tgJC>tqUtdt9A",
" ^d6+m;&mCm>^^^^",
"C&+ACvdg^vkmg^^^",
"^k6^^^^^^g^^^^^^",
"^AmvvkgdioT^^^^^",
"^^^^^^^^^mT^^^^^",
"/^^^^^^^^^^^^^^/"
};
