<?xml version="1.0" encoding="UTF-8" standalone="no"?>
<!-- Created with Inkscape (http://www.inkscape.org/) -->

<svg
   xmlns:dc="http://purl.org/dc/elements/1.1/"
   xmlns:cc="http://creativecommons.org/ns#"
   xmlns:rdf="http://www.w3.org/1999/02/22-rdf-syntax-ns#"
   xmlns:svg="http://www.w3.org/2000/svg"
   xmlns="http://www.w3.org/2000/svg"
   xmlns:sodipodi="http://sodipodi.sourceforge.net/DTD/sodipodi-0.dtd"
   xmlns:inkscape="http://www.inkscape.org/namespaces/inkscape"
   id="svg2"
   sodipodi:version="0.32"
   inkscape:version="0.48.1 r9760"
   width="145"
   height="125"
   version="1.0"
   sodipodi:docname="qsapecng.svg"
   inkscape:output_extension="org.inkscape.output.svg.inkscape">
  <metadata
     id="metadata7">
    <rdf:RDF>
      <cc:Work
         rdf:about="">
        <dc:format>image/svg+xml</dc:format>
        <dc:type
           rdf:resource="http://purl.org/dc/dcmitype/StillImage" />
        <dc:title></dc:title>
      </cc:Work>
    </rdf:RDF>
  </metadata>
  <defs
     id="defs5">
    <inkscape:perspective
       sodipodi:type="inkscape:persp3d"
       inkscape:vp_x="0 : 526.18109 : 1"
       inkscape:vp_y="0 : 1000 : 0"
       inkscape:vp_z="744.09448 : 526.18109 : 1"
       inkscape:persp3d-origin="372.04724 : 350.78739 : 1"
       id="perspective9" />
  </defs>
  <sodipodi:namedview
     inkscape:window-height="879"
     inkscape:window-width="1440"
     inkscape:pageshadow="2"
     inkscape:pageopacity="0.0"
     guidetolerance="10.0"
     gridtolerance="10.0"
     objecttolerance="10.0"
     borderopacity="1.0"
     bordercolor="#666666"
     pagecolor="#ffffff"
     id="base"
     showgrid="false"
     inkscape:zoom="5.36"
     inkscape:cx="72.5"
     inkscape:cy="62.5"
     inkscape:window-x="-3"
     inkscape:window-y="-4"
     inkscape:current-layer="svg2"
     inkscape:window-maximized="1" />
  <g
     id="g2384"
     transform="matrix(1.0033841,0,0,1.001874,-0.4081513,33.822221)">
    <path
       style="fill:#d1d1d1"
       d="m 88,88 c 0,-0.55 0.675,-1 1.5,-1 0.825,0 1.5,0.45 1.5,1 0,0.55 -0.675,1 -1.5,1 C 88.675,89 88,88.55 88,88 z m -3,-3 c 0,-0.55 2.025,-1 4.5,-1 2.475,0 4.5,0.45 4.5,1 0,0.55 -2.025,1 -4.5,1 C 87.025,86 85,85.55 85,85 z m -2,-3 c 0,-0.55 1.125,-1 2.5,-1 1.375,0 2.5,-0.45 2.5,-1 0,-0.648148 -12.666667,-1 -36,-1 l -36,0 0,-8 C 16,63.265669 15.921828,63 13.646023,63 7.7219746,63 2.6918282,53.309654 4.8597741,46.073696 6.1407612,41.798142 11.014656,37 14.076725,37 15.814152,37 16,36.226952 16,29 l 0,-8 39.393011,0 c 34.841796,0 39.462482,-0.181038 39.994315,-1.566971 0.792353,-2.06484 5.549594,-1.510153 7.006694,0.816971 0.79433,1.268611 0.79433,2.231389 0,3.5 -1.4571,2.327124 -6.214341,2.881811 -7.006694,0.816971 C 95.056609,23.705137 93.709167,23 92.393011,23 90.165601,23 90,23.372215 90,28.37868 c 0,5.033501 0.192526,5.458426 3,6.62132 1.65,0.683452 3,1.769976 3,2.414498 0,0.644521 -2.359225,2.326998 -5.242722,3.738837 l -5.242723,2.56698 5.242723,2.656688 C 93.640775,47.838182 96,49.46853 96,50 c 0,0.53147 -2.359225,2.161818 -5.242722,3.622997 l -5.242723,2.656688 5.242723,2.56698 C 93.640775,60.258504 96,61.940981 96,62.585502 96,63.230024 94.65,64.316548 93,65 c -2.950009,1.221934 -3,1.365596 -3,8.62132 L 90,81 l 3,0 c 1.65,0 3,0.45 3,1 0,0.564103 -2.833333,1 -6.5,1 C 85.833333,83 83,82.564103 83,82 z m 5,-10.968063 c 0,-5.358539 0.25671,-6.102567 2.513542,-7.28504 l 2.513542,-1.316978 -5.513542,-2.704094 C 84.481094,58.238573 82,56.643763 82,56.181803 82,55.719842 84.25,54.288031 87,53 c 2.75,-1.288031 5,-2.646609 5,-3.019063 0,-0.372454 -1.802589,-1.490043 -4.005753,-2.483531 -6.818413,-3.074676 -6.898484,-4.075657 -0.574137,-7.177407 5.603789,-2.748356 5.605546,-2.750666 3.093432,-4.066896 C 88.25671,35.07063 88,34.326602 88,28.968063 L 88,23 l -35,0 -35,0 0,7 c 0,6.871795 0.04762,7 2.6,7 1.623529,0 3.876923,1.276923 6,3.4 3.064258,3.064258 3.4,3.95789 3.4,9.04966 0,6.823917 -1.845581,10.741432 -6.010745,12.758681 l -3.114566,1.508429 3.139381,2.641615 c 1.726659,1.452888 3.667354,2.648506 4.312655,2.656928 0.68004,0.0089 0.54618,0.411775 -0.318417,0.958391 C 26.180685,71.129164 22.108015,70.259722 19.75,68.210703 18.11299,66.788209 18,67.022861 18,71.845012 L 18,77 l 35,0 35,0 0,-5.968063 z M 33.666667,58.333333 C 33.3,57.966667 33,56.637121 33,55.378788 l 0,-2.287879 2.454545,2.454546 c 2.844483,2.844482 3.833501,3.017323 5.534886,0.96728 1.806873,-2.177149 0.594001,-4.223067 -3.697439,-6.236977 -2.872776,-1.348152 -3.87011,-2.460356 -4.11425,-4.588114 C 32.712021,41.628717 34.55753,40 39.622445,40 43.62517,40 44,40.214063 44,42.5 c 0,1.375 -0.45,2.5 -1,2.5 -0.55,0 -1,-0.626855 -1,-1.393011 0,-2.078227 -3.144503,-2.891057 -4.795866,-1.239695 -1.795824,1.795824 -0.977081,3.185996 3.109278,5.27935 1.752623,0.897831 3.517197,2.132131 3.921275,2.742888 C 45.381743,52.123289 45.126571,56.473429 43.8,57.8 42.535103,59.064897 34.805074,59.471741 33.666667,58.333333 z M 46.178941,57.25 c 0.818904,-0.9625 2.742551,-5.260115 4.274772,-9.550256 1.936724,-5.422732 3.232948,-7.708738 4.252693,-7.5 0.815552,0.16694 2.871402,4.074319 4.630217,8.800256 2.560783,6.88083 3.591981,8.560871 5.413377,8.819551 2.172861,0.308595 2.25,0.0446 2.25,-7.70031 0,-6.582998 -0.313535,-8.202478 -1.75,-9.039142 -1.323996,-0.771157 -0.212555,-1.026684 4.565741,-1.04969 C 77.587211,39.992991 80,41.141972 80,44.880196 80,48.488583 77.197652,51 73.171259,51 70.326174,51 70,51.303448 70,53.95031 c 0,1.754854 0.709094,3.363319 1.75,3.969591 1.282773,0.747147 -0.652884,1.023312 -7.25,1.034378 -5.401077,0.0091 -8.457405,-0.328709 -7.643108,-0.844672 0.937377,-0.59395 1.144692,-1.82591 0.670545,-3.984687 C 56.95708,51.528099 56.36561,51 54.027534,51 51.189464,51 50,52.476209 50,55.998454 c 0,1.009184 0.5625,2.061853 1.25,2.339265 0.6875,0.277413 -0.507244,0.539913 -2.654988,0.583334 -3.6224,0.07323 -3.797241,-0.04769 -2.416071,-1.671053 z M 56,49.434259 c 0,-0.311158 -0.498369,-1.496953 -1.107487,-2.6351 C 54.004224,45.139376 53.611408,45.003945 52.907826,46.1149 51.445591,48.42377 51.888698,50 54,50 c 1.1,0 2,-0.254584 2,-0.565741 z M 74.977319,48.022681 C 77.183782,45.816218 76.755287,43.474585 73.861684,41.925976 71.198097,40.500467 70,41.575919 70,45.39235 c 0,5.060413 1.666534,5.941116 4.977319,2.630331 z M 21.433725,59.848243 C 23.928054,58.711751 24.210333,58.20841 25.43551,52.712534 26.306899,48.803678 24.356859,42.363362 21.748808,40.536612 14.865033,35.715028 8.0129258,42.974983 9.6695368,53.33486 10.758017,60.141842 15.286515,62.649099 21.433725,59.848243 z M 13,56 c 0,-0.55 1.8,-1 4,-1 2.2,0 4,0.45 4,1 0,0.55 -1.8,1 -4,1 -2.2,0 -4,-0.45 -4,-1 z m 3,-9.5 C 16,45.675 15.325,45 14.5,45 13.675,45 13,44.55 13,44 c 0,-0.55 0.675,-1 1.5,-1 0.825,0 1.5,-0.675 1.5,-1.5 0,-0.825 0.45,-1.5 1,-1.5 0.55,0 1,0.675 1,1.5 0,0.825 0.675,1.5 1.5,1.5 0.825,0 1.5,0.45 1.5,1 0,0.55 -0.675,1 -1.5,1 -0.825,0 -1.5,0.675 -1.5,1.5 0,0.825 -0.45,1.5 -1,1.5 -0.55,0 -1,-0.675 -1,-1.5 z m 86.45455,10.045455 C 98.916183,53.007092 99.00427,46.268458 102.63636,42.636364 104.88537,40.387362 106.13427,40 111.13636,40 116.9648,40 117,40.017735 117,42.954545 l 0,2.954546 -2.45455,-2.454546 c -2.73141,-2.73141 -3.3364,-2.864724 -6.88233,-1.516563 -5.86508,2.229901 -5.23249,13.949347 0.83516,15.472231 C 111.27516,58.107165 116,55.944777 116,53.976947 116,53.439626 116.45,53 117,53 c 1.39259,0 1.25314,3.346863 -0.2,4.8 -0.66,0.66 -3.60545,1.2 -6.54545,1.2 -4.34209,0 -5.80619,-0.46073 -7.8,-2.454545 z M 119.75,44.337719 C 120.44489,44.057325 121,42.130994 121,40 c 0,-2.130994 -0.55511,-4.057325 -1.25,-4.337719 -0.6875,-0.277413 -0.125,-0.535506 1.25,-0.573542 1.8642,-0.05157 3.06097,0.882061 4.70573,3.671053 l 2.20574,3.740208 0.0443,-3.166667 c 0.0243,-1.741666 -0.51823,-3.39364 -1.20573,-3.671052 -0.6875,-0.277413 0.1,-0.504386 1.75,-0.504386 1.65,0 2.4375,0.226973 1.75,0.504386 C 129.51481,35.958935 129,37.985673 129,40.583333 129,43.0125 128.5867,45 128.08156,45 c -0.50514,0 -1.96764,-1.6875 -3.25,-3.75 L 122.5,37.5 l -0.33008,2.891493 c -0.18747,1.642332 0.24454,3.255764 1,3.734688 0.88507,0.561085 0.32637,0.821903 -1.66992,0.779559 -1.65,-0.035 -2.4375,-0.290608 -1.75,-0.568021 z m 13.57006,-0.536654 C 131.60052,41.585088 131.22892,39.591141 132.09918,37.25 132.77684,35.426952 133.70069,35 136.96778,35 140.09614,35 141,35.381069 141,36.7 c 0,1.322222 -0.26667,1.433333 -1.2,0.5 -1.60341,-1.603409 -4.2901,-1.519324 -5.69905,0.178363 C 132.41258,39.41273 134.4038,44 136.97525,44 c 2.24889,0 2.67259,-1.952162 0.82475,-3.8 -0.93333,-0.933333 -0.69635,-1.2 1.06642,-1.2 1.8825,0 2.21282,0.465835 1.95,2.75 -0.25964,2.256495 -0.87007,2.804028 -3.40159,3.051065 -1.69685,0.165586 -3.5395,-0.284414 -4.09477,-1 z"
       id="path2398"
       inkscape:connector-curvature="0" />
    <path
       style="fill:#acacac"
       d="m 88,88 c 0,-0.55 0.675,-1 1.5,-1 0.825,0 1.5,0.45 1.5,1 0,0.55 -0.675,1 -1.5,1 C 88.675,89 88,88.55 88,88 z m -3,-3 c 0,-0.55 2.025,-1 4.5,-1 2.475,0 4.5,0.45 4.5,1 0,0.55 -2.025,1 -4.5,1 C 87.025,86 85,85.55 85,85 z m -2,-3 c 0,-0.55 1.125,-1 2.5,-1 1.375,0 2.5,-0.45 2.5,-1 0,-0.648148 -12.666667,-1 -36,-1 l -36,0 0,-8 C 16,63.773048 15.814152,63 14.076725,63 11.173221,63 6.281396,58.382668 4.9676884,54.402095 2.6767861,47.460593 6.7726257,38.867761 13.027032,37.494063 L 16,36.841089 16,28.920545 16,21 55.377555,21 c 34.327807,0 39.542335,-0.198547 40.662495,-1.548257 0.706716,-0.851541 2.224317,-1.414041 3.372445,-1.25 C 101.07474,18.43924 101.5,19.213013 101.5,22 c 0,2.786987 -0.42526,3.56076 -2.087505,3.798257 -1.148128,0.164041 -2.665729,-0.398459 -3.372445,-1.25 C 95.333333,23.696716 93.685211,23 92.377555,23 90.168837,23 90,23.381956 90,28.37868 c 0,5.033501 0.192526,5.458426 3,6.62132 1.65,0.683452 3,1.630832 3,2.105289 0,0.474457 -2.487014,2.120227 -5.526698,3.657268 l -5.526698,2.79462 5.526698,2.710546 C 93.512986,47.758523 96,49.356237 96,49.818197 96,50.280158 93.75,51.711969 91,53 c -2.75,1.288031 -5,2.638031 -5,3 0,0.361969 2.25,1.711969 5,3 2.75,1.288031 5,2.703397 5,3.145257 0,0.441861 -1.35,1.501495 -3,2.354743 -2.927378,1.513806 -3,1.732294 -3,9.02568 L 90,81 l 3,0 c 1.65,0 3,0.45 3,1 0,0.564103 -2.833333,1 -6.5,1 C 85.833333,83 83,82.564103 83,82 z m 5,-10.968063 c 0,-5.48384 0.221469,-6.084102 2.729614,-7.398252 l 2.729614,-1.430189 -5.676103,-2.783822 c -3.121857,-1.531102 -5.443337,-3.160445 -5.158845,-3.620763 0.284492,-0.460318 2.83234,-2.010083 5.661885,-3.443922 L 93.430791,49.74801 87.715396,46.857974 C 84.571928,45.268454 82,43.757366 82,43.5 c 0,-0.257366 2.521478,-1.742943 5.603285,-3.301284 L 93.20657,37.36537 90.603285,35.659632 C 88.323409,34.1658 88,33.273486 88,28.476947 L 88,23 l -35,0 -35,0 0,6.823635 0,6.823634 3.716367,0.926366 c 5.02139,1.251664 8.28876,6.121468 8.268891,12.324248 -0.01818,5.676534 -1.582377,8.913999 -5.622182,11.636423 -2.627829,1.770894 -2.91983,2.351384 -1.890745,3.758741 0.669373,0.915422 2.524433,2.346205 4.122355,3.179518 L 29.5,69.987679 l -3.527494,0.0062 c -1.940121,0.0034 -4.527621,-0.694356 -5.75,-1.550543 C 18.013609,66.896124 18,66.917557 18,71.943296 L 18,77 l 35,0 35,0 0,-5.968063 z M 33.666667,58.333333 C 33.3,57.966667 33,56.591573 33,55.27757 l 0,-2.389097 2.439408,2.805763 c 2.010331,2.312248 2.757879,2.6107 4.25,1.696778 C 42.777044,55.499839 41.836281,52.724521 37.25,50.194585 33.771264,48.275605 33,47.325711 33,44.960259 33,41.493041 35.676456,39.743206 40.296206,40.190088 42.868,40.438865 43.557129,40.993165 43.789603,43 l 0.289604,2.5 -1.997612,-2.5 c -1.632109,-2.042575 -2.325492,-2.297419 -3.789603,-1.392817 -2.908373,1.79694 -2.738815,4.240855 0.386803,5.575174 6.213166,2.652386 8.154899,6.841092 4.749776,10.246214 -1.555962,1.555963 -8.4699,2.196767 -9.761904,0.904762 z m 12.023467,0.02434 C 46.344708,58.091236 48.318788,53.851762 50.076979,48.93662 51.841356,44.004187 53.84749,40 54.554308,40 c 0.707491,0 2.721419,4.027857 4.5,9 2.820944,7.886139 3.511852,9 5.582537,9 C 66.934093,58 67,57.764986 67,49.573324 c 0,-7.184521 -0.257963,-8.494088 -1.75,-8.883998 -0.9625,-0.251528 1.255357,-0.509524 4.928571,-0.573325 4.857604,-0.08437 7.107035,0.312462 8.25,1.455428 C 82.163458,45.306315 78.750909,51 72.777494,51 70.281202,51 70,51.346928 70,54.426676 c 0,2.422616 0.512772,3.560677 1.75,3.883998 0.9625,0.251528 -2.075,0.473998 -6.75,0.494377 -4.675,0.02038 -7.986152,-0.173702 -7.358116,-0.431293 0.835962,-0.342873 0.85799,-1.393362 0.08222,-3.921053 C 56.84513,51.588749 56.186368,51 53.860811,51 c -2.3194,0 -2.952658,0.561322 -3.6665,3.25 -0.568575,2.141529 -0.49306,3.500578 0.221408,3.984687 C 51.012073,58.638765 49.925,58.940739 48,58.90574 46.075,58.87074 45.03556,58.624111 45.690134,58.357675 z M 56,49.5651 c 0,-0.239196 -0.49956,-1.701696 -1.110133,-3.25 C 53.858374,43.699418 53.721676,43.641677 52.960152,45.5 51.610899,48.792541 51.889915,50 54,50 c 1.1,0 2,-0.195705 2,-0.4349 z M 75.428571,48.428571 C 76.292857,47.564286 77,46.246429 77,45.5 77,43.520936 74.158945,41 71.928571,41 70.309524,41 70,41.722222 70,45.5 c 0,3.777778 0.309524,4.5 1.928571,4.5 1.060715,0 2.635715,-0.707143 3.5,-1.571429 z M 21.985656,60.007677 C 26.391359,57.649816 27.015319,45.015319 22.927918,40.927918 21.758472,39.758472 19.623047,39 17.5,39 c -2.123047,0 -4.258472,0.758472 -5.427918,1.927918 -3.9896774,3.989677 -3.4925594,16.556854 0.752924,19.033959 2.1865,1.275753 6.819182,1.298915 9.16065,0.0458 z M 13.5,56 c 0.339919,-0.55 1.914919,-1 3.5,-1 1.585081,0 3.160081,0.45 3.5,1 0.373806,0.60483 -1.009288,1 -3.5,1 -2.490712,0 -3.873806,-0.39517 -3.5,-1 z M 14.575035,44.940567 C 12.87329,43.22503 12.8443,43 14.325035,43 15.246266,43 16,42.325 16,41.5 16,40.675 16.45,40 17,40 c 0.55,0 1,0.675 1,1.5 0,0.825 0.759853,1.5 1.688561,1.5 1.43202,0 1.362408,0.303858 -0.458186,2 -2.541051,2.367349 -2.244311,2.371138 -4.65534,-0.05943 z M 100,22 c 0,-0.55 -0.45,-1 -1,-1 -0.55,0 -1,0.45 -1,1 0,0.55 0.45,1 1,1 0.55,0 1,-0.45 1,-1 z m 4.22896,36.330706 C 102.29349,57.551976 100,52.47687 100,48.972737 c 0,-2.135083 0.9438,-4.070382 2.97616,-6.102746 2.66247,-2.662471 3.53204,-2.944218 8.25,-2.673077 4.77074,0.274173 5.30593,0.541574 5.61026,2.803086 l 0.33642,2.5 -2.12537,-2.25 c -2.60122,-2.753739 -6.04708,-2.880653 -9.18669,-0.338353 -1.872,1.51586 -2.36078,2.87991 -2.36078,6.588353 0,3.708443 0.48878,5.072493 2.36078,6.588353 3.29706,2.669796 6.61038,2.399416 9.08064,-0.741015 2.48333,-3.157039 3.50971,-2.664109 2.11131,1.013974 -0.91536,2.407587 -1.4652,2.631774 -6.27798,2.559741 -2.90111,-0.04342 -5.84672,-0.309077 -6.54579,-0.590347 z M 120.5,40 c 0,-6.095096 1.41672,-6.445717 5.05076,-1.25 l 2.62286,3.75 -0.38601,-3.75 c -0.22601,-2.195613 0.0489,-3.750258 0.66319,-3.750622 0.63864,-3.78e-4 0.91361,1.95617 0.70269,5 -0.19059,2.750342 -0.64059,4.997383 -1,4.993425 -0.35942,-0.004 -1.91766,-1.916458 -3.46276,-4.25 L 121.88147,36.5 l 0.33569,4.25 C 122.41128,43.207646 122.11998,45 121.52643,45 120.96138,45 120.5,42.752485 120.5,40 z m 12.7,3.8 C 132.54,43.14 132,41.43 132,40 c 0,-1.43 0.54,-3.14 1.2,-3.8 1.42325,-1.423248 6.43348,-1.602066 7.26339,-0.259234 0.34346,0.555735 -0.81781,0.713701 -2.8374,0.385966 -2.84863,-0.462269 -3.52873,-0.208518 -4.07781,1.521462 -0.87775,2.765552 1.04167,6.151806 3.487,6.151806 2.21336,0 2.79018,-3.500293 0.71482,-4.337719 -0.6875,-0.277413 -0.18936,-0.539913 1.10699,-0.583334 1.75384,-0.05875 2.20166,0.325825 1.75,1.50284 -0.33385,0.869984 -0.60699,2.219984 -0.60699,3 0,1.759685 -5.09503,1.923184 -6.8,0.218213 z"
       id="path2396"
       inkscape:connector-curvature="0" />
    <path
       style="fill:#8b8b8b"
       d="m 88,88 c 0,-0.55 0.675,-1 1.5,-1 0.825,0 1.5,0.45 1.5,1 0,0.55 -0.675,1 -1.5,1 C 88.675,89 88,88.55 88,88 z m -3,-3 c 0,-0.55 2.025,-1 4.5,-1 2.475,0 4.5,0.45 4.5,1 0,0.55 -2.025,1 -4.5,1 C 87.025,86 85,85.55 85,85 z m -2,-3 c 0,-0.55 1.125,-1 2.5,-1 1.375,0 2.5,-0.45 2.5,-1 0,-0.648148 -12.666667,-1 -36,-1 l -36,0 0,-8 C 16,63.773048 15.814152,63 14.076725,63 10.961892,63 6.1294853,58.194588 4.9904314,53.964465 3.1257546,47.039584 6.3847163,40.075155 12.529634,37.853124 L 16,36.598223 16,28.799112 16,21 55.035183,21 c 34.281948,0 39.335929,-0.197056 41.505006,-1.61829 1.989254,-1.303409 2.760714,-1.376872 3.964821,-0.377555 C 101.32725,19.686559 102,21.034689 102,22 c 0,0.965311 -0.67275,2.313441 -1.49499,2.995845 -1.204107,0.999317 -1.975567,0.925854 -3.964821,-0.377555 C 95.181787,23.728231 93.154534,23 92.035183,23 90.236118,23 90,23.635121 90,28.47432 c 0,5.071164 0.220935,5.588569 3,7.02568 1.65,0.853248 3,1.75759 3,2.009649 0,0.252058 -2.586032,1.765936 -5.746738,3.364173 l -5.746739,2.905885 5.746739,2.818464 C 93.413968,48.148327 96,49.67915 96,50 c 0,0.32085 -2.586032,1.851673 -5.746738,3.401829 l -5.746739,2.818464 5.746739,2.905885 C 93.413968,60.724415 96,62.238293 96,62.490351 96,62.74241 94.65,63.646752 93,64.5 c -2.927378,1.513806 -3,1.732294 -3,9.02568 L 90,81 l 3,0 c 1.65,0 3,0.45 3,1 0,0.564103 -2.833333,1 -6.5,1 C 85.833333,83 83,82.564103 83,82 z m 5.5,-11.250207 c 0,-3.162613 0.251492,-5.750113 0.55887,-5.75 0.307379,1.14e-4 1.409508,-0.621794 2.449175,-1.382018 1.761621,-1.288128 1.536367,-1.561578 -3.30887,-4.016845 C 85.339629,58.151888 83,56.600811 83,56.154091 83,55.707372 85.25,54.288031 88,53 c 2.75,-1.288031 5,-2.62121 5,-2.962619 0,-0.34141 -2.586032,-1.889054 -5.746738,-3.43921 l -5.746739,-2.818464 5.92902,-2.998057 5.92902,-2.998057 -2.340695,-1.765589 C 89.007172,34.496807 88.708622,33.473636 88.867023,28.626207 L 89.050874,23 53.525437,23 18,23 l 0,7 c 0,5.655253 0.2977,7 1.54966,7 2.888032,0 7.409396,3.020144 8.933413,5.967267 1.832202,3.543088 1.952195,10.614263 0.237616,14.002718 -0.687404,1.358491 -2.655293,3.417128 -4.373085,4.574748 -2.517811,1.696753 -2.931708,2.447048 -2.135123,3.870466 0.543475,0.971136 2.405498,2.382386 4.137828,3.13611 L 29.5,69.921716 l -3.527494,0.03914 c -1.940121,0.02153 -4.527621,-0.661375 -5.75,-1.517562 C 18.013388,66.895969 18,66.91713 18,71.956089 L 18,77.025585 53.25,76.762793 88.5,76.5 l 0,-5.750207 z M 34.25,58.337719 c -0.6875,-0.277412 -1.219544,-1.704386 -1.18232,-3.171052 0.0666,-2.623956 0.0849,-2.630982 1.142997,-0.438669 1.329742,2.755154 4.402891,3.837602 6.337311,2.232176 C 42.938334,54.976362 42.230186,53.286495 37.75,50.283282 35.4125,48.716381 33.363552,46.492728 33.196783,45.341831 32.728919,42.11304 35.67156,39.84587 39.874379,40.19705 42.899517,40.449825 43.547965,40.914055 43.789603,43 l 0.289604,2.5 -1.873363,-2.355339 c -2.244194,-2.821579 -5.574796,-2.539076 -6.01155,0.509901 -0.232767,1.624945 0.721599,2.699755 4,4.504812 4.855708,2.673506 6.007714,5.854941 3.231076,8.923091 -1.647366,1.820319 -6.223489,2.446364 -9.17537,1.255254 z m 12.045209,-0.775785 c 0.790936,-0.790936 2.700965,-5.065936 4.244509,-9.5 C 52.083262,43.62787 53.888093,40 54.550454,40 c 0.662362,0 2.656827,4.028284 4.432145,8.951742 1.775318,4.923458 3.743,9.162931 4.372626,9.421052 C 63.984851,58.630915 62.7,58.870741 60.5,58.90574 c -2.366743,0.03765 -3.484717,-0.263469 -2.738023,-0.737472 0.979283,-0.621651 1.009104,-1.526499 0.133127,-4.039329 -0.983002,-2.819842 -1.525136,-3.198863 -4.196061,-2.933581 -2.443122,0.242656 -3.227044,0.906868 -3.852742,3.264404 -0.529862,1.996434 -0.388578,3.21198 0.434083,3.734687 0.719143,0.456932 -0.143343,0.781209 -2.101813,0.790238 -2.888805,0.01332 -3.134117,-0.171998 -1.883362,-1.422753 z M 56,48.69113 C 56,47.971251 55.393078,46.552243 54.651283,45.537779 53.390838,43.814018 53.230622,43.899681 52.203303,46.84665 51.165026,49.825054 51.239852,50 53.55202,50 54.90246,50 56,49.413174 56,48.69113 z m 9.75,9.646589 C 66.609649,57.990843 67,55.230994 67,49.5 c 0,-5.730994 -0.390351,-8.490843 -1.25,-8.837719 -0.6875,-0.277413 1.492756,-0.539913 4.845012,-0.583334 4.703663,-0.06092 6.472808,0.338512 7.75,1.749794 C 81.954688,45.817388 78.808524,51 72.777494,51 70.281202,51 70,51.346928 70,54.426676 c 0,2.422616 0.512772,3.560677 1.75,3.883998 0.9625,0.251528 -0.275,0.473998 -2.75,0.494377 -2.475,0.02038 -3.9375,-0.189919 -3.25,-0.467332 z m 9.678571,-9.909148 c 2.145215,-2.145214 1.975137,-5.142146 -0.36283,-6.393387 C 71.131655,39.929725 70,40.703743 70,45.5 c 0,3.777778 0.309524,4.5 1.928571,4.5 1.060715,0 2.635715,-0.707143 3.5,-1.571429 z M 22.944223,59.055777 c 2.37557,-2.37557 3.506711,-7.838556 2.611291,-12.611554 C 24.651243,41.624044 21.811723,39 17.5,39 c -2.133197,0 -4.259249,0.759249 -5.444223,1.944223 -3.6376448,3.637645 -3.8990472,12.593646 -0.518179,17.753503 1.978796,3.020024 8.538737,3.225939 11.406625,0.358051 z M 13.5,56 c 0.339919,-0.55 1.914919,-1 3.5,-1 1.585081,0 3.160081,0.45 3.5,1 0.373806,0.60483 -1.009288,1 -3.5,1 -2.490712,0 -3.873806,-0.39517 -3.5,-1 z M 14.575035,44.940567 C 12.87329,43.22503 12.8443,43 14.325035,43 15.246266,43 16,42.325 16,41.5 16,40.675 16.45,40 17,40 c 0.55,0 1,0.675 1,1.5 0,0.825 0.759853,1.5 1.688561,1.5 1.43202,0 1.362408,0.303858 -0.458186,2 -2.541051,2.367349 -2.244311,2.371138 -4.65534,-0.05943 z M 100,22 c 0,-0.55 -0.45,-1 -1,-1 -0.55,0 -1,0.45 -1,1 0,0.55 0.45,1 1,1 0.55,0 1,-0.45 1,-1 z m 4.36408,35.83041 c -5.079071,-2.459329 -5.827005,-10.521331 -1.38792,-14.960419 2.66247,-2.662471 3.53204,-2.944218 8.25,-2.673077 4.77074,0.274173 5.30593,0.541574 5.61026,2.803086 l 0.33642,2.5 -2.12537,-2.25 C 110.56151,38.501006 103,42.423776 103,49.5 c 0,7.01778 7.57778,11.016319 11.96104,6.311439 C 116.99237,53.631068 117,53.630668 117,55.70445 c 0,1.144865 -0.7118,2.354717 -1.58179,2.688561 -2.39744,0.919986 -8.64939,0.601792 -11.05413,-0.562601 z M 120.5,40 c 0,-5.979841 1.43556,-6.458363 4.5,-1.5 1.18972,1.925 2.40065,3.5 2.69097,3.5 0.29031,0 0.34397,-1.575 0.11924,-3.5 -0.23764,-2.035499 0.0304,-3.50026 0.64059,-3.500622 0.63864,-3.78e-4 0.91361,1.95617 0.70269,5 -0.19059,2.750342 -0.64059,4.997383 -1,4.993425 -0.35942,-0.004 -1.91766,-1.916458 -3.46276,-4.25 L 121.88147,36.5 l 0.33569,4.25 C 122.41128,43.207646 122.11998,45 121.52643,45 120.96138,45 120.5,42.752485 120.5,40 z m 12.7,3.8 C 132.54,43.14 132,41.43 132,40 c 0,-1.43 0.54,-3.14 1.2,-3.8 1.38148,-1.381479 6.42369,-1.617903 7.21454,-0.338283 0.29291,0.473945 -1.14303,0.811445 -3.19099,0.75 -3.16659,-0.09501 -3.77243,0.233066 -4.05031,2.193325 C 132.76834,41.661233 134.59876,44 137.23902,44 c 1.58785,0 1.89677,-0.509348 1.51623,-2.5 -0.29287,-1.532063 -0.0179,-2.5 0.71023,-2.5 0.75133,0 1.02626,1.102919 0.74783,3 -0.36393,2.479607 -0.90632,3 -3.12681,3 -1.47757,0 -3.2265,-0.54 -3.8865,-1.2 z"
       id="path2394"
       inkscape:connector-curvature="0" />
    <path
       style="fill:#737373"
       d="m 88,88 c 0,-0.55 0.675,-1 1.5,-1 0.825,0 1.5,0.45 1.5,1 0,0.55 -0.675,1 -1.5,1 C 88.675,89 88,88.55 88,88 z m -0.73625,-2.717581 c 1.520062,-0.229855 3.770062,-0.223712 5,0.01365 1.229937,0.237362 -0.01375,0.425424 -2.76375,0.417917 -2.75,-0.0075 -3.756313,-0.201713 -2.23625,-0.431567 z m -2.337889,-3.159682 c 1.334224,-0.372847 2.609224,-1.227991 2.833333,-1.90032 C 88.07525,79.274251 80.071316,79 52.083333,79 L 16,79 16,71 C 16,63.567901 15.852564,63 13.923077,63 11.019225,63 6.3838851,58.049849 5.1695827,53.652008 3.353697,47.075412 6.6367268,39.984027 12.474631,37.873013 L 16,36.598223 16,28.799112 16,21 55.3,21 c 26.911741,0 39.641911,-0.341911 40.384665,-1.084665 0.596566,-0.596566 2.149066,-0.934066 3.45,-0.75 3.381175,0.478393 3.381175,5.190937 0,5.66933 -1.300934,0.184066 -2.853434,-0.153434 -3.45,-0.75 C 95.088099,23.488099 93.565,23 92.3,23 90.180096,23 90,23.428653 90,28.47432 c 0,5.071164 0.220935,5.588569 3,7.02568 1.65,0.853248 3,1.75759 3,2.009649 0,0.252058 -2.586032,1.765936 -5.746738,3.364173 l -5.746739,2.905885 5.746739,2.818464 C 93.413968,48.148327 96,49.67915 96,50 c 0,0.32085 -2.586032,1.851673 -5.746738,3.401829 l -5.746739,2.818464 5.746739,2.905885 C 93.413968,60.724415 96,62.238293 96,62.490351 96,62.74241 94.65,63.646752 93,64.5 c -2.949784,1.525393 -3,1.683778 -3,9.462322 l 0,7.910961 3.25,0.403321 c 1.7875,0.221827 0.1,0.430483 -3.75,0.463679 -4.065151,0.03505 -5.982924,-0.223863 -4.574139,-0.617546 z M 88.5,71.5 c 0,-5.517422 0.222459,-6.12337 2.765882,-7.533893 l 2.765882,-1.533893 -5.515882,-2.705242 C 85.482147,58.239089 83,56.643763 83,56.181803 83,55.719842 85.25,54.288031 88,53 c 2.75,-1.288031 5,-2.638031 5,-3 0,-0.361969 -2.25,-1.711969 -5,-3 -2.75,-1.288031 -5,-2.719842 -5,-3.181803 0,-0.46196 2.481094,-2.05677 5.513542,-3.544022 l 5.513542,-2.704094 -2.513542,-1.316978 C 89.25671,35.07063 89,34.326602 89,28.968063 L 89,23 53.5,23 18,23 l 0,7 c 0,5.655253 0.2977,7 1.54966,7 3.181647,0 7.650063,3.233756 9.029118,6.534299 2.995974,7.170375 0.591772,16.06398 -5.035703,18.628029 -1.988793,0.906154 -2.272476,1.474774 -1.477156,2.960843 0.5414,1.011615 2.21055,2.504727 3.709222,3.318027 L 28.5,69.919925 l -2.785183,0.04004 c -1.531851,0.02202 -3.894351,-0.686716 -5.25,-1.574972 L 18,66.76998 18,72.397783 18,78.025585 53.25,77.762793 88.5,77.5 l 0,-6 z M 34.25,58.337719 C 33.5625,58.060307 33.030456,56.633333 33.06768,55.166667 33.13505,52.512026 33.1403,52.510245 34.230194,54.771736 36.136303,58.726839 42,58.971532 42,55.095971 42,53.214167 39.052137,50 37.326247,50 35.847695,50 33,46.594446 33,44.826247 c 0,-2.674779 3.566597,-4.990516 7.15646,-4.646582 2.708018,0.259447 3.404102,0.795522 3.662164,2.820335 l 0.318625,2.5 -1.665181,-2.306898 c -2.080778,-2.882654 -5.841014,-2.61237 -6.277774,0.451244 -0.23333,1.636675 0.713667,2.705604 4,4.515028 4.855708,2.673506 6.007714,5.854941 3.231076,8.923091 -1.647366,1.820319 -6.223489,2.446364 -9.17537,1.255254 z M 46.171506,57.75 c 0.854572,-0.6875 2.84536,-4.9625 4.423975,-9.5 1.578614,-4.5375 3.403473,-8.25 4.055241,-8.25 0.651769,0 2.386346,3.607215 3.854618,8.016033 1.468271,4.408818 3.337369,8.683818 4.15355,9.5 1.311956,1.311956 1.041014,1.482192 -2.337461,1.468654 -2.303521,-0.0092 -3.32016,-0.33352 -2.559452,-0.816419 0.979283,-0.621651 1.009104,-1.526499 0.133127,-4.039329 -0.983002,-2.819842 -1.525136,-3.198863 -4.196061,-2.933581 -2.443122,0.242656 -3.227044,0.906868 -3.852742,3.264404 -0.529862,1.996434 -0.388578,3.21198 0.434083,3.734687 0.71423,0.453811 -0.206324,0.781271 -2.221514,0.790238 -2.913817,0.01297 -3.203033,-0.176235 -1.887364,-1.234687 z m 9.814839,-8.5 C 55.951128,47.315662 54.684765,44 53.981194,44 c -0.432049,0 -1.256156,1.35 -1.831349,3 -0.976483,2.801141 -0.883538,3 1.402175,3 1.346389,0 2.441835,-0.3375 2.434325,-0.75 z M 65.75,58.337719 C 66.609649,57.990843 67,55.230994 67,49.5 67,43.769006 66.609649,41.009157 65.75,40.662281 65.0625,40.384868 66.987372,40.122368 70.027494,40.078947 76.165655,39.991278 80,41.905183 80,45.056704 80,47.954335 76.412822,51 73,51 c -2.749677,0 -3,0.285925 -3,3.426676 0,2.422616 0.512772,3.560677 1.75,3.883998 0.9625,0.251528 -0.275,0.473998 -2.75,0.494377 -2.475,0.02038 -3.9375,-0.189919 -3.25,-0.467332 z M 75.8,48.8 C 78.681106,45.918894 76.473909,41 72.3,41 70.240741,41 70,41.471014 70,45.5 c 0,4.028986 0.240741,4.5 2.3,4.5 1.265,0 2.84,-0.54 3.5,-1.2 z M 22.988322,59.210539 c 1.499372,-1.214117 2.378443,-3.284848 2.734129,-6.440488 C 26.745026,43.697796 23.764256,39 16.985302,39 c -3.444185,0 -4.304659,0.461846 -6.055142,3.25 -2.603812,4.147328 -2.3014176,13.577296 0.535927,16.712526 2.346797,2.593182 8.463481,2.724842 11.522235,0.248013 z M 14.75,56.294267 c 1.2375,-0.238353 3.2625,-0.238353 4.5,0 1.2375,0.238353 0.225,0.433369 -2.25,0.433369 -2.475,0 -3.4875,-0.195016 -2.25,-0.433369 z M 16,45.5 c 0,-0.825 -0.7875,-1.552201 -1.75,-1.616001 -1.666667,-0.110478 -1.666667,-0.137779 0,-0.573325 C 15.2125,43.059147 16,42.211348 16,41.426676 16,40.642004 16.45,40 17,40 c 0.55,0 1,0.642004 1,1.426676 0,0.784672 0.7875,1.632471 1.75,1.883998 1.666667,0.435546 1.666667,0.462847 0,0.573325 C 18.7875,43.947799 18,44.675 18,45.5 18,46.325 17.55,47 17,47 16.45,47 16,46.325 16,45.5 z M 100,22 c 0,-0.55 -0.675,-1 -1.5,-1 -0.825,0 -1.5,0.45 -1.5,1 0,0.55 0.675,1 1.5,1 0.825,0 1.5,-0.45 1.5,-1 z m 2.79788,33.951729 c -2.68099,-2.680988 -2.982034,-3.542095 -2.49855,-7.146749 0.67413,-5.026022 3.17299,-7.682813 7.95616,-8.459015 5.15877,-0.837152 8.74451,0.258966 8.74451,2.673087 0,1.968247 -0.0128,1.968124 -2,-0.01905 -4.41274,-4.412744 -12,-0.416988 -12,6.319687 0,7.255309 7.33928,11.341033 12,6.680313 1.92464,-1.924643 2,-1.928674 2,-0.106989 C 117,58.186669 115.12603,59 109.84129,59 c -3.11977,0 -4.66304,-0.667904 -7.04341,-3.048271 z M 120.5,40 c 0,-5.979841 1.43556,-6.458363 4.5,-1.5 1.18972,1.925 2.40065,3.5 2.69097,3.5 0.29031,0 0.34397,-1.575 0.11924,-3.5 -0.23764,-2.035499 0.0304,-3.50026 0.64059,-3.500622 0.63864,-3.78e-4 0.91361,1.95617 0.70269,5 -0.19059,2.750342 -0.64059,4.997383 -1,4.993425 -0.35942,-0.004 -1.91766,-1.916458 -3.46276,-4.25 L 121.88147,36.5 l 0.33569,4.25 C 122.41128,43.207646 122.11998,45 121.52643,45 120.96138,45 120.5,42.752485 120.5,40 z m 12.7,3.8 C 132.54,43.14 132,41.43 132,40 c 0,-1.43 0.54,-3.14 1.2,-3.8 1.31091,-1.31091 6.8,-1.666356 6.8,-0.440334 0,0.417817 -1.4625,0.755317 -3.25,0.75 -2.6357,-0.0078 -3.31176,0.42602 -3.57676,2.295376 -0.65987,4.654781 5.24455,7.495522 6.12103,2.944958 0.37157,-1.929146 0.45279,-1.857845 0.56955,0.5 0.11774,2.377662 -0.24293,2.75 -2.66382,2.75 -1.54,0 -3.34,-0.54 -4,-1.2 z"
       id="path2392"
       inkscape:connector-curvature="0" />
    <path
       style="fill:#4b4b4b"
       d="m 88,88 c 0,-0.55 0.675,-1 1.5,-1 0.825,0 1.5,0.45 1.5,1 0,0.55 -0.675,1 -1.5,1 C 88.675,89 88,88.55 88,88 z m -0.73625,-2.717581 c 1.520062,-0.229855 3.770062,-0.223712 5,0.01365 1.229937,0.237362 -0.01375,0.425424 -2.76375,0.417917 -2.75,-0.0075 -3.756313,-0.201713 -2.23625,-0.431567 z M 84.5,82.27639 c 1.1,-0.270384 2.632145,-1.005683 3.404767,-1.633998 1.061595,-0.863316 -7.488605,-1.264538 -35,-1.642392 L 16.5,78.5 16.210335,70.883285 15.92067,63.266569 12.728446,62.351052 C 2.6389885,59.457433 2.3805834,41.339709 12.381695,38.039044 L 15.918177,36.8719 16.209089,29.18595 16.5,21.5 56.25,21.238526 C 83.298375,21.060602 96,20.639956 96,19.922103 c 0,-0.580221 1.2375,-0.912558 2.75,-0.738525 2.18229,0.251099 2.75,0.832524 2.75,2.816422 0,1.983898 -0.56771,2.565323 -2.75,2.816422 C 97.2375,24.990455 96,24.7011 96,24.173411 c 0,-1.32011 -2.678796,-2.233899 -4.5,-1.535037 -1.075526,0.412718 -1.5,2.094464 -1.5,5.942935 0,5.028429 0.202342,5.471966 3.204572,7.024479 l 3.204571,1.657149 -5.741987,2.903482 c -3.158094,1.596916 -5.529682,3.247002 -5.270197,3.666858 0.259486,0.419856 2.751323,1.83105 5.537416,3.135986 2.786094,1.304936 5.057945,2.63319 5.048559,2.951674 -0.0094,0.318485 -2.484387,1.647169 -5.5,2.952632 C 87.46732,54.179031 85,55.547788 85,55.915251 c 0,0.367462 2.5875,1.944051 5.75,3.503531 l 5.75,2.835418 -3.25,1.554327 -3.25,1.554326 0,8.255215 0,8.255215 3.25,0.403321 c 1.7875,0.221827 0.1,0.423138 -3.75,0.447358 -3.85,0.02422 -6.1,-0.177188 -5,-0.447572 z M 88.5,71.5 c 0,-5.624693 0.186616,-6.102983 2.983419,-7.646386 l 2.983419,-1.646386 -5.733419,-2.811932 C 85.580039,57.848734 83,56.32085 83,56 c 0,-0.32085 2.586032,-1.851673 5.746738,-3.401829 l 5.746739,-2.818464 -5.746739,-2.905885 C 85.586032,45.275585 83,43.757366 83,43.5 c 0,-0.257366 2.5875,-1.780004 5.75,-3.383642 l 5.75,-2.915705 -2.705928,-1.240761 c -2.453002,-1.124786 -2.733415,-1.811828 -3,-7.350326 L 88.5,22.5 53.25,22.237207 18,21.974415 l 0,7.293626 0,7.293627 4.147282,1.469166 c 7.115711,2.520725 9.941177,11.298956 6.101164,18.955255 C 27.286801,58.903437 25.375,61.026021 24,61.702941 20.614449,63.369666 20.856099,64.986409 24.897883,67.710167 27.857225,69.704467 28.012145,70 26.098223,70 24.889575,70 22.573027,69.313444 20.95034,68.47432 L 18,66.94864 18,72.487112 18,78.025585 53.25,77.762793 88.5,77.5 l 0,-6 z M 34.75,58.310674 C 33.768035,58.05406 33,56.910125 33,55.70417 c 0,-2.144457 0.0035,-2.144171 1.596693,0.130416 2.335287,3.334089 6.790019,2.651277 7.221888,-1.106958 0.26835,-2.335244 -0.21722,-2.996243 -3.079606,-4.192225 -6.34183,-2.649785 -7.487538,-6.696627 -2.662606,-9.404792 C 39.614941,39.144462 44,40.312693 44,43.241558 l 0,2.203454 -1.596557,-2.279404 C 40.224935,40.055353 36.5,40.576869 36.5,43.99213 c 0,1.89692 0.891011,2.911675 3.730635,4.248751 C 48.968317,52.35514 44.360076,60.82205 34.75,58.310674 z m 11.163059,-0.23578 c 0.777182,-0.491964 2.017236,-2.172573 2.755675,-3.734687 L 50.011349,51.5 49.447684,54.405143 c -0.35715,1.840762 -0.08445,3.20907 0.744326,3.734687 0.836509,0.530525 0.04637,0.829544 -2.19201,0.829544 -2.444578,0 -3.073893,-0.269729 -2.086941,-0.89448 z m 11.806557,0.119555 c 0.822748,-0.522762 0.963918,-1.738043 0.433829,-3.734687 C 57.486102,51.946129 56.812391,51.453218 53.68383,51.189635 51.657723,51.018934 50,50.546794 50,50.140435 c 0,-0.406358 1.636416,-0.547791 3.636481,-0.314295 2.222323,0.259444 3.400642,0.04294 3.030027,-0.556725 -0.33355,-0.539695 -1.107716,-2.283598 -1.720369,-3.87534 L 53.832225,42.5 l -1.334894,3 c -1.81689,4.083225 -1.859277,2.302021 -0.04836,-2.032119 C 53.245909,41.560547 54.266129,40 54.716129,40 c 0.45,0 2.109776,3.7125 3.68839,8.25 1.578615,4.5375 3.569403,8.8125 4.423975,9.5 1.306407,1.051001 0.92634,1.247562 -2.387364,1.234687 -2.252049,-0.0087 -3.41843,-0.347428 -2.721514,-0.790238 z M 65.75,58.337719 C 66.609649,57.990843 67,55.230994 67,49.5 c 0,-5.730994 -0.390351,-8.490843 -1.25,-8.837719 -0.6875,-0.277413 1.3375,-0.539913 4.5,-0.583334 4.486644,-0.0616 6.189428,0.360481 7.75,1.921053 3.654812,3.654812 1.765926,7.693982 -4.03156,8.621037 C 70.274075,51.21179 70,51.483449 70,54.554484 c 0,2.300894 0.52941,3.437217 1.75,3.75619 0.9625,0.251528 -0.275,0.473998 -2.75,0.494377 -2.475,0.02038 -3.9375,-0.189919 -3.25,-0.467332 z M 75.8,48.8 C 78.681106,45.918894 76.473909,41 72.3,41 70.240741,41 70,41.471014 70,45.5 c 0,4.028986 0.240741,4.5 2.3,4.5 1.265,0 2.84,-0.54 3.5,-1.2 z M 23.595012,58.895012 C 25.085517,57.248023 25.5,55.2706 25.5,49.806659 25.5,43.674053 25.212394,42.590404 23.139216,40.911647 19.890523,38.281015 13.870888,38.380198 11.404988,41.104988 9.9253832,42.739932 9.5,44.726186 9.5,50 c 0,8.549077 1.782489,11 8,11 2.989693,0 4.735754,-0.603023 6.095012,-2.104988 z M 15.25,56.310674 c 0.9625,-0.251527 2.5375,-0.251527 3.5,0 0.9625,0.251528 0.175,0.457323 -1.75,0.457323 -1.925,0 -2.7125,-0.205795 -1.75,-0.457323 z M 16,45.5 C 16,44.675 15.517857,44 14.928571,44 c -0.589285,0 -0.364285,-0.707143 0.5,-1.571429 C 16.857143,41 17.142857,41 18.571429,42.428571 19.435714,43.292857 19.660714,44 19.071429,44 18.482143,44 18,44.675 18,45.5 18,46.325 17.55,47 17,47 16.45,47 16,46.325 16,45.5 z M 99.312868,20.912868 c -1.327821,-1.327821 -2.799309,0.491038 -1.759017,2.174264 0.483823,0.782843 0.976174,0.782843 1.759017,0 0.782842,-0.782843 0.782842,-1.391421 0,-2.174264 z M 106,58.290565 C 98.876798,55.671409 98.29894,44.965253 105.09119,41.452842 110.32973,38.743889 117,39.795025 117,43.329495 117,45.4377 116.995,45.43733 115.4433,43.222506 111.67959,37.849056 103,42.227803 103,49.5 c 0,7.272197 8.67959,11.650944 12.4433,6.277494 1.54587,-2.207038 1.5567,-2.20785 1.5567,-0.116632 0,2.856545 -6.29212,4.360762 -11,2.629703 z M 121.15019,40.25 c -0.0826,-2.8875 0.26311,-5.25 0.76825,-5.25 0.50514,0 1.96764,1.6875 3.25,3.75 l 2.33156,3.75 0.60809,-4 c 0.59517,-3.914938 0.61112,-3.888356 0.75,1.25 0.078,2.8875 -0.0767,5.25 -0.3439,5.25 -0.2672,0 -1.7297,-1.886951 -3.25,-4.193225 L 122.5,36.613551 l -0.59981,4.443224 -0.5998,4.443225 -0.1502,-5.25 z m 17.67431,2.075823 c 0.42673,-2.092959 0.67819,-2.344421 0.96961,-0.969603 0.2164,1.020921 -0.0429,2.292541 -0.57615,2.825822 -0.62614,0.626137 -0.76551,-0.0314 -0.39346,-1.856219 z m -6.21751,0.09239 c -0.83635,-2.179495 -0.76121,-5.205734 0.14301,-5.759485 0.4125,-0.252618 0.77193,1.295824 0.79872,3.440983 0.0541,4.334305 -0.0602,4.615781 -0.94173,2.318502 z"
       id="path2390"
       inkscape:connector-curvature="0" />
    <path
       style="fill:#2c2c2c"
       d="m 88.270833,88.395833 c 0.332292,-0.332291 1.194792,-0.367818 1.916667,-0.07895 0.797733,0.319226 0.560776,0.556183 -0.604167,0.604167 -1.054166,0.04342 -1.644791,-0.192928 -1.3125,-0.52522 z M 87.26375,85.282419 c 1.520062,-0.229855 3.770062,-0.223712 5,0.01365 1.229937,0.237362 -0.01375,0.425424 -2.76375,0.417917 -2.75,-0.0075 -3.756313,-0.201713 -2.23625,-0.431567 z M 85.5,82.123355 l 3,-0.640016 0,-7.99167 c 0,-7.835199 0.05841,-8.023904 2.983419,-9.638055 l 2.983419,-1.646386 -5.733419,-2.811932 C 85.580039,57.848734 83,56.32085 83,56 c 0,-0.32085 2.586032,-1.851673 5.746738,-3.401829 l 5.746739,-2.818464 -5.746739,-2.905885 C 85.586032,45.275585 83,43.757366 83,43.5 c 0,-0.257366 2.5875,-1.780004 5.75,-3.383642 l 5.75,-2.915705 -2.672855,-1.225692 c -2.463486,-1.129681 -2.698482,-1.764372 -3,-8.102579 L 88.5,20.995494 l 3.690983,0.0023 C 94.221024,20.998986 96.160081,20.55 96.5,20 c 0.943604,-1.526784 4.2129,-1.190549 4.86163,0.5 1.46033,3.80557 -2.741747,6.156766 -5.36163,3 C 95.315311,22.675 93.685211,22 92.377555,22 90.139457,22 90,22.350426 90,27.97432 c 0,5.711472 0.140989,6.047228 3.204572,7.631468 l 3.204571,1.657149 -5.704571,2.884563 C 87.567057,41.734009 85,43.242634 85,43.5 c 0,0.257366 2.586032,1.775585 5.746738,3.373822 l 5.746739,2.905885 -5.746739,2.818464 C 87.586032,54.148327 85,55.67915 85,56 c 0,0.32085 2.5875,1.859302 5.75,3.418782 l 5.75,2.835418 -3.25,1.554327 -3.25,1.554326 0,8.255215 0,8.255215 3.25,0.403321 c 1.7875,0.221827 0.1,0.422097 -3.75,0.445044 -4.405898,0.02626 -5.888242,-0.195458 -4,-0.598293 z M 100,22 c 0,-1.1 -0.423442,-2 -0.940983,-2 -1.34235,0 -2.288219,1.820126 -1.559017,3 1.045118,1.691037 2.5,1.109085 2.5,-1 z M 20.384859,67.768279 C 18.798186,66.540833 17.351747,65.196075 17.17055,64.779929 16.989352,64.363783 14.883802,63.157494 12.491549,62.099286 7.3900515,59.842652 5,55.967889 5,49.953952 5,41.726134 11.256955,36.234731 19.389243,37.325264 c 7.674182,1.029101 11.978163,8.882861 9.635556,17.582641 -0.845556,3.140154 -2.023015,4.748507 -4.58142,6.258003 C 22.549521,62.283312 21,63.524661 21,63.924462 c 0,0.984544 4.140016,4.689382 6,5.36931 0.877588,0.320807 0.414869,0.581092 -1.115141,0.627281 -1.438328,0.04342 -3.913328,-0.925327 -5.5,-2.152774 z M 23.75,58.345049 C 25.543221,56.387189 26,54.709094 26,50.079095 26,42.136305 23.593793,39 17.5,39 11.547023,39 9,42.172634 9,49.587806 c 0,6.588769 1.508323,10.062805 4.894491,11.273205 3.620874,1.294297 7.203291,0.37976 9.855509,-2.515962 z m -8.5,-2.034375 c 0.9625,-0.251527 2.5375,-0.251527 3.5,0 0.9625,0.251528 0.175,0.457323 -1.75,0.457323 -1.925,0 -2.7125,-0.205795 -1.75,-0.457323 z M 15,44 c -1.124804,-0.726904 -0.624543,-0.969374 2,-0.969374 2.624543,0 3.124804,0.24247 2,0.969374 -0.825,0.533156 -1.725,0.969374 -2,0.969374 -0.275,0 -1.175,-0.436218 -2,-0.969374 z M 34.75,57.919901 C 33.7875,57.359296 33,56.147853 33,55.227804 c 0,-1.310406 0.345919,-1.178948 1.596693,0.606782 2.308089,3.295258 6.789241,2.653702 7.214744,-1.032919 0.26331,-2.281363 -0.323703,-3.022358 -3.798722,-4.79518 -4.676183,-2.385611 -5.629806,-3.984925 -4.09078,-6.860622 C 36.119736,39.039236 44,39.114061 44,43.241558 l 0,2.203454 -1.596557,-2.279404 C 40.225509,40.056171 36.5,40.576806 36.5,43.990606 c 0,1.839759 0.868495,2.900691 3.323483,4.059881 C 45.275949,50.62502 46.349725,53.650275 43,57 c -2.167665,2.167665 -5.474636,2.536403 -8.25,0.919901 z M 46.270914,57.75 c 0.909245,-0.6875 2.130604,-2.375 2.71413,-3.75 1.030476,-2.428177 1.044265,-2.416538 0.479966,0.405143 -0.37106,1.855421 -0.108372,3.204884 0.727,3.734687 0.840628,0.533137 0.07843,0.835016 -2.13314,0.844857 -2.966552,0.0132 -3.213135,-0.157078 -1.787956,-1.234687 z m 11.600971,0.350341 c 1.029741,-0.652299 1.135161,-1.583717 0.4227,-3.734687 C 57.511351,52.001014 56.703287,51.445738 53.6727,51.189635 51.652715,51.018934 50,50.546794 50,50.140435 c 0,-0.406358 1.582932,-0.554035 3.517628,-0.32817 3.491516,0.407615 3.509644,0.389666 2.44216,-2.41803 -0.591507,-1.555782 -1.570368,-3.425012 -2.175246,-4.153846 -0.801941,-0.96628 -0.790791,-1.63414 0.04117,-2.466104 1.468588,-1.468588 1.362402,-1.647446 4.586717,7.725715 1.513575,4.4 3.475976,8.5625 4.360891,9.25 1.364731,1.060274 1.010748,1.247676 -2.332193,1.234687 -2.621617,-0.01019 -3.481815,-0.30627 -2.569245,-0.884346 z M 65.75,58.337719 C 66.609649,57.990843 67,55.230994 67,49.5 67,43.769006 66.609649,41.009157 65.75,40.662281 63.442514,39.73119 73.83971,39.988559 76.298516,40.923396 82.585526,43.313713 79.270789,51 71.952947,51 70.395634,51 70,51.694187 70,54.426676 c 0,2.422616 0.512772,3.560677 1.75,3.883998 0.9625,0.251528 -0.275,0.473998 -2.75,0.494377 -2.475,0.02038 -3.9375,-0.189919 -3.25,-0.467332 z M 75.8,48.8 C 78.681106,45.918894 76.473909,41 72.3,41 70.240741,41 70,41.471014 70,45.5 c 0,4.028986 0.240741,4.5 2.3,4.5 1.265,0 2.84,-0.54 3.5,-1.2 z m 29.66528,9.248476 c -2.60791,-1.057092 -4.03083,-2.882725 -4.81669,-6.179942 -0.796762,-3.342916 1.01126,-8.616124 3.39085,-9.889643 2.8851,-1.54406 3.20468,-1.157293 0.99952,1.20967 -2.42658,2.604621 -2.72106,9.326185 -0.53513,12.21431 0.79212,1.046579 3.14031,2.23233 5.21819,2.635001 3.39247,0.657423 3.47186,0.737396 0.77798,0.783743 -1.65,0.02839 -3.91562,-0.319526 -5.03472,-0.773139 z M 115.09459,56.25 c 0.73671,-0.9625 1.46681,-1.9375 1.62244,-2.166667 C 116.87266,53.854167 117,54.641667 117,55.833333 117,57.165267 116.37493,58 115.37756,58 c -1.3888,0 -1.42955,-0.252018 -0.28297,-1.75 z m 0.18802,-13.150561 c -0.66956,-1.082321 -2.46956,-2.163306 -4,-2.402187 -1.53043,-0.238882 -1.05795,-0.306323 1.04998,-0.14987 4.40978,0.3273 4.97148,0.689816 4.50581,2.907997 -0.2871,1.367576 -0.52294,1.313621 -1.55579,-0.35594 z M 121.15019,40.25 c -0.0826,-2.8875 0.19358,-5.25 0.61374,-5.25 0.42016,0 1.88266,1.820071 3.25,4.044603 l 2.48607,4.044603 0.59981,-4.294603 0.5998,-4.294603 0.1502,5.25 c 0.0826,2.8875 -0.0684,5.25 -0.33562,5.25 -0.2672,0 -1.7297,-1.886951 -3.25,-4.193225 L 122.5,36.613551 l -0.59981,4.443224 -0.5998,4.443225 -0.1502,-5.25 z m 18.0077,1.75 c 0,-1.375 0.22698,-1.9375 0.50439,-1.25 0.27741,0.6875 0.27741,1.8125 0,2.5 -0.27741,0.6875 -0.50439,0.125 -0.50439,-1.25 z M 132,39.559017 c 0,-1.342541 0.36858,-2.668775 0.81906,-2.947187 0.45048,-0.278413 0.6244,0.82003 0.3865,2.440983 C 132.68102,42.626701 132,42.912657 132,39.559017 z"
       id="path2388"
       inkscape:connector-curvature="0" />
    <path
       style="fill:#040404"
       d="m 88.270833,88.395833 c 0.332292,-0.332291 1.194792,-0.367818 1.916667,-0.07895 0.797733,0.319226 0.560776,0.556183 -0.604167,0.604167 -1.054166,0.04342 -1.644791,-0.192928 -1.3125,-0.52522 z M 87.26375,85.282419 c 1.520062,-0.229855 3.770062,-0.223712 5,0.01365 1.229937,0.237362 -0.01375,0.425424 -2.76375,0.417917 -2.75,-0.0075 -3.756313,-0.201713 -2.23625,-0.431567 z M 85.63287,82.28534 c 2.918571,-0.367594 3.136694,-0.671675 3.188776,-4.445405 0.03075,-2.227951 0.308456,-4.30337 0.61713,-4.612044 C 89.747449,72.919218 90,74.738155 90,77.269975 c 0,4.444076 0.11242,4.617259 3.25,5.006629 1.7875,0.221827 0.1,0.403322 -3.75,0.403322 -3.85,0 -5.590209,-0.177564 -3.86713,-0.394586 z M 22.5,69.054643 c -1.1,-0.450221 -2.9,-1.830012 -4,-3.066202 -1.1,-1.23619 -3.838607,-3.041637 -6.085794,-4.012105 C 4.9318183,58.744999 2.5219746,47.331091 8.0742946,41.420917 13.14573,36.022621 22.584174,36.113316 26.901439,41.601829 c 4.853919,6.170759 2.944979,16.819574 -3.569271,19.910788 l -3.512328,1.666709 2.34008,2.519696 c 1.287044,1.385832 3.24008,2.89196 4.34008,3.34695 2,0.827255 2,0.827255 0,0.827255 -1.1,0 -2.9,-0.368362 -4,-0.818584 z M 20.712941,60.950225 C 24.476666,59.638183 26,56.389639 26,49.675453 26,41.195638 21.240307,36.775498 14.503293,38.998913 10.580192,40.293653 9,43.480228 9,50.096713 9,59.7076 13.176335,63.5775 20.712941,60.950225 z M 93.333333,62.5 c 0,-0.720125 0.6,-1.079077 1.333334,-0.79767 C 95.4,61.983736 96,62.342688 96,62.5 96,62.657312 95.4,63.016264 94.666667,63.29767 93.933333,63.579077 93.333333,63.22013 93.333333,62.5 z m -56.0625,-4.104167 c 0.332292,-0.332291 1.194792,-0.367818 1.916667,-0.07895 0.797733,0.319226 0.560776,0.556183 -0.604167,0.604167 -1.054166,0.04342 -1.644791,-0.192928 -1.3125,-0.52522 z m 9.329223,-0.161146 c 0.605031,-0.404078 1.313662,-1.398081 1.574736,-2.208897 0.33414,-1.037734 0.646891,-0.815678 1.056325,0.75 0.46906,1.793689 0.164252,2.221246 -1.574737,2.208897 -1.253331,-0.0089 -1.695699,-0.322985 -1.056324,-0.75 z m 11.836468,-0.131981 c 0.305007,-0.493512 0.275315,-2.293512 -0.06598,-4 C 57.804397,51.271983 57.388403,50.985264 53.625,50.831897 L 49.5,50.663794 53.178425,50.275799 c 3.661915,-0.386254 3.673522,-0.40233 2.586199,-3.581897 -0.600724,-1.756646 -1.577254,-3.512664 -2.170066,-3.902261 -0.755954,-0.496815 -0.718134,-1.068065 0.126641,-1.91284 1.298857,-1.298857 1.633511,-0.675939 5.378993,10.012353 1.039068,2.965135 2.396698,6.002635 3.016956,6.75 C 63.019834,58.728825 62.709769,59 60.563428,59 59.088624,59 58.131517,58.596218 58.436524,58.102706 z M 66.8,57.8 c 0.712653,-0.712653 1.2,-4.144513 1.2,-8.45031 0,-5.850093 -0.337969,-7.447159 -1.75,-8.269591 -1.344303,-0.782985 -0.590867,-0.994761 3.25,-0.913508 2.75,0.05818 3.9875,0.300789 2.75,0.539142 C 70.326883,41.076141 70,41.772659 70,45.5 c 0,3.727341 0.326883,4.423859 2.25,4.794267 2.237473,0.430956 2.236888,0.434127 -0.105035,0.569551 C 70.017625,50.986833 69.826811,51.386739 70.17139,55 70.52353,58.692537 70.3625,59 68.076426,59 66.150317,59 65.866667,58.733333 66.8,57.8 z m 41.95,0.537719 c 0.6875,-0.277412 1.8125,-0.277412 2.5,0 0.6875,0.277413 0.125,0.504386 -1.25,0.504386 -1.375,0 -1.9375,-0.226973 -1.25,-0.504386 z M 33.345077,56.456872 c -0.900006,-2.345377 0.07147,-2.620767 1.451252,-0.411394 C 35.568893,57.282551 35.635245,58 34.977089,58 34.405167,58 33.670761,57.305592 33.345077,56.456872 z m 8.57218,-0.302266 C 43.193096,53.77068 40.991242,50.465602 37.552194,49.602456 34.252393,48.774259 32.576649,45.659556 34,43 c 0.588702,-1.1 1.520368,-2 2.070368,-2 0.653882,0 0.665855,0.624355 0.03459,1.803882 -1.219235,2.278162 -0.42908,3.494832 3.615397,5.566936 C 43.858652,50.490989 45.439816,53.309679 44,56 c -0.588702,1.1 -1.520368,2 -2.070368,2 -0.662196,0 -0.666376,-0.623381 -0.01237,-1.845394 z M 84.25,57.337719 C 82.819546,56.760519 82.550701,55 83.893011,55 c 0.491156,0 1.152033,0.675 1.468615,1.5 0.316583,0.825 0.477228,1.464474 0.356989,1.421053 C 85.598377,57.877632 84.9375,57.615132 84.25,57.337719 z M 103,56 c -2.92273,-2.922728 -2.75053,-9.946286 0.31445,-12.825686 C 106.22042,40.4443 107.70972,40.290281 105,43 c -1.40741,1.407407 -2,3.333333 -2,6.5 0,3.166667 0.59259,5.092593 2,6.5 1.1,1.1 1.55,2 1,2 -0.55,0 -1.9,-0.9 -3,-2 z m 11,1.622445 C 114,57.414789 114.675,56.684689 115.5,56 116.72851,54.980429 117,55.048765 117,56.377555 117,57.2699 116.325,58 115.5,58 114.675,58 114,57.8301 114,57.622445 z M 94,50.059017 C 94,49.476558 94.45,49 95,49 c 0.55,0 1,0.198442 1,0.440983 0,0.242541 -0.45,0.719098 -1,1.059017 -0.55,0.339919 -1,0.141476 -1,-0.440983 z M 75.992399,48.509159 c 0.680508,-0.819963 1.036767,-2.857077 0.791687,-4.52692 C 76.505439,42.0837 76.743415,41.07881 77.419242,41.3002 80.177482,42.203753 78.686186,50 75.755111,50 75.194553,50 75.298828,49.344861 75.992399,48.509159 z M 42.710251,43 C 42.422595,41.9 42.59511,41 43.09362,41 43.592129,41 44,41.9 44,43 c 0,1.1 -0.172516,2 -0.383369,2 -0.210852,0 -0.618724,-0.9 -0.90638,-2 z m 72.521819,0 c -1.04175,-1.668106 -0.99869,-2 0.25946,-2 0.8418,0 1.50847,0.883896 1.50847,2 0,1.1 -0.11675,2 -0.25945,2 -0.1427,0 -0.82152,-0.9 -1.50848,-2 z m 5.88393,-2.75 c -0.0638,-2.8875 0.24364,-5.25 0.6832,-5.25 0.43956,0 0.63862,1.6875 0.44236,3.75 -0.61198,6.431117 -1.00503,6.954929 -1.12556,1.5 z m 6.65767,4 c -0.18939,-0.4125 -0.0585,-2.775 0.29079,-5.25 l 0.63515,-4.5 0.1502,5.25 c 0.13874,4.849934 -0.22229,6.359641 -1.07614,4.5 z M 139.15789,42 c 0,-1.375 0.22698,-1.9375 0.50439,-1.25 0.27741,0.6875 0.27741,1.8125 0,2.5 -0.27741,0.6875 -0.50439,0.125 -0.50439,-1.25 z M 38.270833,40.395833 c 0.332292,-0.332291 1.194792,-0.367818 1.916667,-0.07895 0.797733,0.319226 0.560776,0.556183 -0.604167,0.604167 -1.054166,0.04342 -1.644791,-0.192928 -1.3125,-0.52522 z M 109.75,40.337719 c 0.6875,-0.277412 1.8125,-0.277412 2.5,0 0.6875,0.277413 0.125,0.504386 -1.25,0.504386 -1.375,0 -1.9375,-0.226973 -1.25,-0.504386 z m 22.32895,-0.754386 c -0.0434,-1.054166 0.19292,-1.644791 0.52522,-1.3125 0.33229,0.332292 0.36781,1.194792 0.0789,1.916667 -0.31922,0.797733 -0.55618,0.560776 -0.60416,-0.604167 z M 93.333333,37.5 c 0,-0.720125 0.6,-1.079077 1.333334,-0.79767 C 95.4,36.983736 96,37.342688 96,37.5 96,37.657312 95.4,38.016264 94.666667,38.29767 93.933333,38.579077 93.333333,38.220125 93.333333,37.5 z M 96.157895,22 c 0,-1.375 0.226973,-1.9375 0.504386,-1.25 0.277412,0.6875 0.277412,1.8125 0,2.5 -0.277413,0.6875 -0.504386,0.125 -0.504386,-1.25 z M 89,21.90638 C 89,21.407871 89.9,21 91,21 c 1.1,0 2,0.172516 2,0.383369 0,0.210852 -0.9,0.618724 -2,0.90638 -1.1,0.287656 -2,0.115141 -2,-0.383369 z"
       id="path2386"
       inkscape:connector-curvature="0" />
  </g>
  <path
     style="fill:#000000"
     d="m 16.116925,71.914251 c 0.009,-0.43823 64.024846,-29.630454 64.323016,-29.332284 0.13782,0.13782 0.0815,0.40119 -0.12527,0.58527 -0.578,0.51471 -63.168175,29.049044 -63.719188,29.049044 -0.266601,0 -0.481952,-0.13591 -0.478558,-0.30203 z M 32.822833,58.338027 c -2.127313,-0.77305 -4.472818,-3.26215 -3.817742,-4.05147 0.929644,-1.12015 1.880614,-1.06024 3.138601,0.19775 1.754485,1.75449 4.691527,1.81311 7.754831,0.15478 2.880025,-1.55911 3.959379,-4.10364 2.577552,-6.07647 -0.889791,-1.27036 -2.909124,-1.48965 -6.926987,-0.75223 -4.154304,0.76246 -6.273408,0.81726 -7.484462,0.19353 -3.693439,-1.90225 -4.388966,-5.92489 -1.597942,-9.24183 1.99843,-2.375 7.119472,-4.14697 9.939405,-3.43921 1.214409,0.30479 3.866707,2.52828 3.866707,3.24156 0,0.27186 -0.442496,0.7311 -0.983324,1.02054 -0.881379,0.4717 -1.114208,0.41613 -2.245752,-0.536 -2.384382,-2.00633 -7.265314,-0.85522 -9.005121,2.12374 -0.720563,1.23377 -0.72777,1.3981 -0.117454,2.67795 0.860913,1.80535 1.829536,1.98525 6.282746,1.16686 4.853223,-0.8919 8.115442,-0.67071 9.524608,0.6458 1.698113,1.58645 2.293839,3.09992 2.083174,5.29235 -0.257156,2.67627 -1.84761,4.60312 -5.151705,6.24135 -3.175488,1.57447 -5.652092,1.93503 -7.837135,1.141 z m 20.537735,-9.54564 c -1.305346,-0.72196 -2.651919,-2.04979 -3.607268,-3.55706 -0.77486,-1.22251 -6.661599,-13.871384 -6.661599,-14.313819 0,-0.23138 2.465927,-1.477905 2.612317,-1.320527 0.0667,0.0717 1.426703,3.029816 3.022235,6.573576 1.595532,3.54377 3.263162,7.03656 3.705844,7.76175 1.547257,2.5347 4.353308,3.16289 7.444322,1.66656 4.416032,-2.13777 4.408082,-4.14684 -0.05536,-13.995419 -1.833924,-4.046546 -3.002126,-7.102844 -2.792988,-7.307119 0.19773,-0.193131 0.825267,-0.466045 1.394525,-0.606476 1.001283,-0.247007 1.135418,-0.0341 4.115492,6.532537 3.634763,8.009247 4.261673,10.234517 3.551283,12.605597 -0.6721,2.24325 -3.084943,4.54351 -5.851763,5.57872 -2.461762,0.92106 -5.588089,1.09458 -6.877037,0.38168 z m 15.901633,-17.30045 c -2.54431,-5.565494 -4.67682,-10.248306 -4.73892,-10.406248 -0.0621,-0.157943 2.39906,-1.403246 5.46925,-2.767341 6.37382,-2.831908 8.28307,-3.113676 10.58532,-1.562187 1.83634,1.237503 3.17175,3.693021 3.18,5.84725 0.0129,3.374307 -1.54583,5.013817 -7.35494,7.736057 -3.96166,1.856499 -3.81912,1.154483 -1.33245,6.562129 0.79497,1.72878 1.4454,3.28533 1.4454,3.45899 0,0.30762 -1.76398,1.25043 -2.33952,1.25043 -0.15847,0 -2.36983,-4.55358 -4.91414,-10.11908 z m 6.91816,-3.997968 c 2.98983,-1.495897 3.91758,-2.242814 4.42081,-3.55911 0.8277,-2.165048 -1.36611,-5.277778 -3.71971,-5.277778 -0.62512,0 -2.77877,0.75228 -4.7859,1.671733 -4.14898,1.900626 -4.0153,1.425595 -1.74588,6.204358 1.59233,3.352995 1.18394,3.285699 5.83068,0.960797 z m 18.35253,2.684339 c -1.68716,-0.619644 -2.58084,-1.224178 -3.61153,-2.443057 -0.96372,-1.139671 -0.88598,-1.621772 0.35247,-2.18605 0.94749,-0.431702 1.18618,-0.370778 2.14449,0.547343 2.49437,2.389749 6.820869,1.953415 9.758439,-0.984153 1.59676,-1.596759 1.83409,-2.524322 1.07321,-4.19429 -0.81027,-1.778349 -2.32867,-2.074317 -6.729059,-1.311633 -4.81996,0.835404 -6.61323,0.840281 -8.33621,0.02267 -3.47117,-1.647178 -3.92366,-6.423915 -0.88226,-9.313718 3.95634,-3.759144 9.95674,-4.363491 12.563629,-1.265379 1.27194,1.511609 1.26818,1.612888 -0.0882,2.381485 -1.064489,0.603189 -1.149189,0.582105 -2.220439,-0.552719 -1.02266,-1.083345 -1.29237,-1.165016 -3.29805,-0.998689 -2.4886,0.206374 -5.20441,1.747223 -5.9452,3.373087 -0.61137,1.341801 -0.0122,2.988821 1.36943,3.764304 0.95431,0.53564 1.4556,0.526151 4.66048,-0.08822 4.4167,-0.846673 7.425179,-0.877086 8.946379,-0.09044 3.16972,1.639125 4.02917,5.94212 1.8239,9.131675 -2.23033,3.225805 -8.275249,5.422049 -11.581459,4.207781 z m 19.494859,-7.796246 c -0.98861,-1.881381 -8.92014,-19.445483 -8.92014,-19.753332 0,-0.351863 1.74116,-1.287779 2.39576,-1.287779 0.18939,0 0.52603,0.498342 0.74808,1.107427 0.22205,0.609085 2.31059,5.232229 4.6412,10.273654 l 4.23747,9.166227 -1.15885,0.599265 c -1.45302,0.751386 -1.49446,0.749138 -1.94352,-0.105462 z"
     id="path3001"
     inkscape:connector-curvature="0" />
</svg>
