/* XPM */
static char *qsapecng_32x32[] = {
/* columns rows colors chars-per-pixel */
"32 32 157 2 ",
"   c black",
".  c #232323",
"X  c #282828",
"o  c gray16",
"O  c #2A2A2A",
"+  c gray18",
"@  c gray19",
"#  c #323232",
"$  c gray20",
"%  c #343434",
"&  c gray22",
"*  c #3A3A3A",
"=  c gray24",
"-  c #3F3F3F",
";  c gray25",
":  c #434343",
">  c #444444",
",  c #464646",
"<  c #494949",
"1  c gray29",
"2  c #4B4B4B",
"3  c #4C4C4C",
"4  c gray30",
"5  c #4E4E4E",
"6  c #515151",
"7  c gray32",
"8  c gray33",
"9  c #555555",
"0  c #565656",
"q  c gray34",
"w  c #585858",
"e  c gray35",
"r  c #5A5A5A",
"t  c #5B5B5B",
"y  c gray36",
"u  c gray37",
"i  c #5F5F5F",
"p  c #626262",
"a  c gray39",
"s  c #6A6A6A",
"d  c #6D6D6D",
"f  c #6F6F6F",
"g  c gray44",
"h  c #727272",
"j  c #747474",
"k  c #777777",
"l  c gray47",
"z  c #797979",
"x  c #7B7B7B",
"c  c gray50",
"v  c #808080",
"b  c #818181",
"n  c gray51",
"m  c #838383",
"M  c gray52",
"N  c #868686",
"B  c gray53",
"V  c #888888",
"C  c gray54",
"Z  c #8B8B8B",
"A  c gray55",
"S  c #8D8D8D",
"D  c #8E8E8E",
"F  c gray56",
"G  c gray57",
"H  c #929292",
"J  c gray58",
"K  c #959595",
"L  c gray59",
"P  c #979797",
"I  c #989898",
"U  c gray60",
"Y  c #9A9A9A",
"T  c #9B9B9B",
"R  c gray61",
"E  c #9D9D9D",
"W  c gray62",
"Q  c #9F9F9F",
"!  c #A0A0A0",
"~  c #A2A2A2",
"^  c #A4A4A4",
"/  c #A5A5A5",
"(  c gray65",
")  c gray66",
"_  c #A9A9A9",
"`  c #AAAAAA",
"'  c #ACACAC",
"]  c gray68",
"[  c #AEAEAE",
"{  c #AFAFAF",
"}  c #B1B1B1",
"|  c #B4B4B4",
" . c gray71",
".. c #B7B7B7",
"X. c gray72",
"o. c #B9B9B9",
"O. c #BBBBBB",
"+. c #BCBCBC",
"@. c gray74",
"#. c gray75",
"$. c #C1C1C1",
"%. c gray76",
"&. c gray77",
"*. c #C5C5C5",
"=. c #C6C6C6",
"-. c gray78",
";. c #C8C8C8",
":. c gray79",
">. c #CACACA",
",. c #CBCBCB",
"<. c gray80",
"1. c #CDCDCD",
"2. c #CECECE",
"3. c gray81",
"4. c #D0D0D0",
"5. c gray82",
"6. c #D2D2D2",
"7. c LightGray",
"8. c gray83",
"9. c #D5D5D5",
"0. c gray84",
"q. c #D7D7D7",
"w. c #D8D8D8",
"e. c gray85",
"r. c #DADADA",
"t. c gray86",
"y. c gainsboro",
"u. c #DDDDDD",
"i. c gray87",
"p. c gray88",
"a. c #E1E1E1",
"s. c #E2E2E2",
"d. c #E4E4E4",
"f. c gray90",
"g. c #E7E7E7",
"h. c gray91",
"j. c #E9E9E9",
"k. c #EAEAEA",
"l. c gray92",
"z. c #ECECEC",
"x. c gray93",
"c. c #EEEEEE",
"v. c #EFEFEF",
"b. c gray94",
"n. c #F3F3F3",
"m. c #F4F4F4",
"M. c gray96",
"N. c #F6F6F6",
"B. c #F8F8F8",
"V. c #F9F9F9",
"C. c gray98",
"Z. c #FBFBFB",
"A. c gray99",
"S. c #FDFDFD",
"D. c #FEFEFE",
"F. c gray100",
"G. c None",
/* pixels */
"G.G.F.F.F.F.F.F.F.F.F.F.F.F.F.F.F.F.F.F.F.F.F.F.F.F.F.F.F.F.G.G.",
"G.F.F.F.F.F.F.F.F.F.F.F.F.F.F.F.F.F.F.F.F.F.F.F.F.F.F.F.F.F.F.G.",
"F.F.F.F.F.F.F.F.F.F.F.F.F.F.F.F.F.F.F.F.F.F.F.=.F.F.F.F.F.F.F.F.",
"F.F.F.F.F.F.F.F.F.F.F.F.F.F.F.F.F.F.F.F.F.z.F.s q.F.F.F.F.F.F.F.",
"F.F.F.F.F.F.F.F.F.F.F.F.F.F.F.F.F.F.F.K 0 w #.B.5 F.F.F.F.F.F.F.",
"F.F.F.F.F.F.F.F.F.F.F.F.F.F.F.F.b.l.F.- F.F.N.F.7 z.F.F.F.F.F.F.",
"F.F.F.F.F.F.F.F.F.F.F.F.F.F.6.5 s * 6.F , 7 w m d.w F.F.F.F.F.F.",
"F.F.F.F.F.F.F.F.F.F.F.F.6.l.h =.F.:.M F.F.F.F.0 F.6.F.F.F.F.F.F.",
"F.F.F.F.F.F.F.F.F.F.F.F.l.w F.% z 7 F.F.% 2 2 b.F.F.F.F.F.F.F.F.",
"F.F.F.F.F.F.F.F.F.] H F.F.- F.u #.F.F.F.F.F.F.F.F.F.F.F.F.F.F.F.",
"F.F.F.F.F.F.u 2 p F.# F.F.O.V b.0 F.F.F.F.F.F.F.F.F.F.F.F.F.F.F.",
"F.F.F.F.F.k d.F.F.F.R _ F.B.7 F.=.l.F.F.F.F.F.F.F.F.F.F.F.F.F.F.",
"F.F.F.F.F.=.+ : , 5 F.# h * z.:.6.F.F.F.F.F.F.F.F.F.F.F.F.F.F.F.",
"F.F.F.F.F.F.F.F.F.p B.F.d.6.2.F.F.F.F.F.F.b.F.F.F.F.F.F.F.F.F.F.",
"F.F.F.%.] ] p u w , T F z ] ~ R R K H h h : T F.F.F.F.F.F.F.F.F.",
"F.F.F.R F.F.F.y.2.:.d.F.F.F.F.F.F.F.F.R F.%.b.F.F.F.F.F.F.F.F.F.",
"F.F.F.K F.F.2.=.z.F.F.F.F.F.F.F.F.F.F._ F.F.F.F.F.F.F.F.F.F.F.F.",
"F.F.F.F d.2.F.F.F.F.F.F.F.F.F.F.F.F.F.q.( B.F.F.F.F.q.z.t.t.=.F.",
"F.l.5 m z m F.N.] y.F.z.z.F.2.( #.F.F._ _ F.F.=.O.6.( _ #._ t.F.",
"F.X y.7 l.0 =.* F.] F._ h F. .M q.h V 6.F.F.c 6.F.~ t.F. .:.O.F.",
"F.  F.B.F.K z  .# y.F.K # F.=.w M %.F.t.m F.: F.F.F.F.F.F.F.F.F.",
"F.  F.B.F.V F l.F.o :.l.H } #.k F.F.l.R 6.F.- F.F.l.F.F.F.F.F.F.",
"F.d ] :.B.o z.F  .] 0 F.q.2 _ m F.F.~ ] F.F.s.m O.M F.F.F.F.F.F.",
"F.F.M : o 6.F.F.F.F.F.F.F.F.F.F.F.F.F.F.w B.F.F.F.F.F.F.F.F.F.F.",
"F.F.F.K . O.F.F.F.F.F.F.F.F.F.F.F.F.F.R F.F.F.F.F.F.F.F.F.F.F.F.",
"F.F.F.T F.=.B.F.F.F.F.F.F.F.F.F.F.F.F.R F.F.F.F.F.F.F.F.F.F.F.F.",
"F.F.F.T l.s.s.s.y.y.y.t.t.q.q.q.q.6.q.m F.F.F.F.F.F.F.F.F.F.F.F.",
"F.F.F.l.q.q.q.6.q.q.6.6.2.6.:.=.%.#.H o 2.B.F.F.F.F.F.F.F.F.F.F.",
"F.F.F.F.F.F.F.F.F.F.F.F.F.F.F.F.F.F.B._ 2.F.F.F.F.F.F.F.F.F.F.F.",
"F.F.F.F.F.F.F.F.F.F.F.F.F.F.F.F.F.F.F.=.F.F.F.F.F.F.F.F.F.F.F.F.",
"G.F.F.F.F.F.F.F.F.F.F.F.F.F.F.F.F.F.F.F.F.F.F.F.F.F.F.F.F.F.F.G.",
"G.G.F.F.F.F.F.F.F.F.F.F.F.F.F.F.F.F.F.F.F.F.F.F.F.F.F.F.F.F.G.G."
};
